<svg xmlns="http://www.w3.org/2000/svg" xmlns:xlink="http://www.w3.org/1999/xlink" width="400.051" height="276" viewBox="0 0 400.051 276">
  <defs>
    <clipPath id="clip-path">
      <rect id="Rectángulo_402267" data-name="Rectángulo 402267" width="394" height="276" transform="translate(180.422 3901)" fill="#fff" stroke="#707070" stroke-width="1"/>
    </clipPath>
    <clipPath id="clip-path-2">
      <path id="Trazado_875210" data-name="Trazado 875210" d="M206.524,123.314c-10.617,0-19.226,6.759-19.226,15.1V321.1c0,8.337,8.608,15.1,19.226,15.1H561.458c10.618,0,19.227-6.759,19.227-15.1V138.41c0-8.337-8.608-15.1-19.227-15.1Z" transform="translate(-187.298 -123.314)" fill="none"/>
    </clipPath>
    <clipPath id="clip-path-3">
      <rect id="Rectángulo_402266" data-name="Rectángulo 402266" width="830.44" height="785.763" fill="none"/>
    </clipPath>
  </defs>
  <g id="Grupo_1101389" data-name="Grupo 1101389" transform="translate(-180 -3923)">
    <g id="Enmascarar_grupo_1098777" data-name="Enmascarar grupo 1098777" transform="translate(5.629 22)" clip-path="url(#clip-path)">
      <g id="Grupo_1101387" data-name="Grupo 1101387" transform="translate(2.534 3837)">
        <g id="Grupo_1101384" data-name="Grupo 1101384" transform="translate(184.662 123.314)">
          <g id="Grupo_1101383" data-name="Grupo 1101383" clip-path="url(#clip-path-2)">
            <rect id="Rectángulo_402260" data-name="Rectángulo 402260" width="739.446" height="500" transform="translate(-139.702 -123.314)" fill="#fff"/>
            <path id="Trazado_875128" data-name="Trazado 875128" d="M203.108,587.583c-13.179-26.546-36.874-45.88-60.229-63.828S95.192,487.73,79.8,462.437s-19.691-60.082-2.143-83.885c13.152-17.842,34.368-27.184,51.366-40.561,28.48-22.415,54.072-53.306,50.814-91.978-3.857-45.787-10-98.829,19.26-138.089,36.831-49.411,106.151-40.494,148.261-4.69,24.287,20.65,43.028,49.748,70.553,66.328,28.6,17.227,57.464,29.4,91.248,31.2,45.731,2.426,94.278-18.609,138.318-.328,34.306,14.241,61.387,47.14,54.727,86.438-6.649,39.24-28.377,86.893-.777,122.856,15.987,20.832,50.673,34.952,58.093,60.255,11.968,40.813-12.434,89-52.113,102.9" transform="translate(-185.595 -123.314)" fill="#f4f5ff"/>
            <path id="Trazado_875129" data-name="Trazado 875129" d="M227.522,253.665a3.913,3.913,0,1,1-3.912-3.968A3.94,3.94,0,0,1,227.522,253.665Z" transform="translate(-187.754 -123.314)" fill="none" stroke="#d5dcf7" stroke-miterlimit="10" stroke-width="1.5"/>
            <line id="Línea_2781" data-name="Línea 2781" x2="76.387" transform="translate(16.842 7.182)" fill="none" stroke="#d5dcf7" stroke-miterlimit="10" stroke-width="1.5"/>
            <path id="Trazado_875130" data-name="Trazado 875130" d="M237.311,111.145H148.1a12.559,12.559,0,0,1,0-25.115h89.208a12.559,12.559,0,0,1,0,25.115Z" transform="translate(-186.572 -123.314)" fill="none" stroke="#d5dcf7" stroke-miterlimit="10" stroke-width="1.5"/>
            <rect id="Rectángulo_402261" data-name="Rectángulo 402261" width="463.831" height="310.498" transform="translate(181.208 -88.457)" fill="#fff"/>
            <rect id="Rectángulo_402262" data-name="Rectángulo 402262" width="463.831" height="310.498" transform="translate(181.208 -88.457)" fill="none" stroke="#d5dcf7" stroke-miterlimit="10" stroke-width="1.5"/>
            <path id="Trazado_875131" data-name="Trazado 875131" d="M769.085,72.964H438.527a10.845,10.845,0,0,1,0-21.688H769.085a10.845,10.845,0,0,1,0,21.688" transform="translate(-190.683 -123.314)" fill="#d5dcf7"/>
            <line id="Línea_2782" data-name="Línea 2782" x2="463.831" transform="translate(181.208 -26.781)" fill="none" stroke="#d5dcf7" stroke-miterlimit="10" stroke-width="1.5"/>
            <line id="Línea_2783" data-name="Línea 2783" x2="463.831" transform="translate(181.208 25.345)" fill="none" stroke="#d5dcf7" stroke-miterlimit="10" stroke-width="1.5"/>
            <line id="Línea_2784" data-name="Línea 2784" x2="463.831" transform="translate(181.208 77.471)" fill="none" stroke="#d5dcf7" stroke-miterlimit="10" stroke-width="1.5"/>
            <line id="Línea_2785" data-name="Línea 2785" x2="463.831" transform="translate(181.208 129.596)" fill="none" stroke="#d5dcf7" stroke-miterlimit="10" stroke-width="1.5"/>
            <line id="Línea_2786" data-name="Línea 2786" x2="463.831" transform="translate(181.208 181.722)" fill="none" stroke="#d5dcf7" stroke-miterlimit="10" stroke-width="1.5"/>
            <line id="Línea_2787" data-name="Línea 2787" y2="207.93" transform="translate(271.581 -25.974)" fill="none" stroke="#d5dcf7" stroke-miterlimit="10" stroke-width="1.5"/>
            <line id="Línea_2788" data-name="Línea 2788" y2="207.93" transform="translate(334.682 -25.974)" fill="none" stroke="#d5dcf7" stroke-miterlimit="10" stroke-width="1.5"/>
            <line id="Línea_2789" data-name="Línea 2789" x2="303.465" transform="translate(261.391 -59.54)" fill="none" stroke="#fff" stroke-miterlimit="10" stroke-width="1.5"/>
            <rect id="Rectángulo_402263" data-name="Rectángulo 402263" width="76.697" height="111.491" transform="translate(352.046 -1.92)" fill="#f99c6e"/>
            <path id="Trazado_875132" data-name="Trazado 875132" d="M542.1,120.286c0,44.4-4.751,82.178-23.755,118.425h78.983c19-36.247,23.754-74.029,23.754-118.425Z" transform="translate(-191.957 -123.314)" fill="#e5e7fc"/>
            <path id="Trazado_875233" data-name="Trazado 875233" d="M19.785-.062A19.512,19.512,0,0,1,39.508,19.412a19.813,19.813,0,0,1-19.848,19.6A19.512,19.512,0,0,1-.062,19.536,19.813,19.813,0,0,1,19.785-.062Z" transform="matrix(0.23, -0.973, 0.973, 0.23, 353.432, 61.977)" fill="none" stroke="#fff" stroke-width="1.5"/>
            <path id="Trazado_875133" data-name="Trazado 875133" d="M569.595,150.77v19.8s10.8-5.293,17.533-8.711a19.5,19.5,0,0,0-17.533-11.089" transform="translate(-192.678 -123.314)" fill="#fff"/>
            <path id="Trazado_875134" data-name="Trazado 875134" d="M573.325,142.955v19.8s10.806-5.293,17.533-8.711a19.5,19.5,0,0,0-17.533-11.089" transform="translate(-192.73 -123.314)" fill="#ced3ef"/>
            <line id="Línea_2790" data-name="Línea 2790" x2="9.283" y2="17.374" transform="translate(377.458 46.991)" fill="none" stroke="#fff" stroke-miterlimit="10" stroke-width="1.5"/>
            <line id="Línea_2791" data-name="Línea 2791" x2="52.601" transform="translate(366.462 9.7)" fill="none" stroke="#ced3ef" stroke-miterlimit="10" stroke-width="1.5"/>
            <line id="Línea_2792" data-name="Línea 2792" x2="52.601" transform="translate(353.534 82.951)" fill="none" stroke="#ced3ef" stroke-miterlimit="10" stroke-width="1.5"/>
            <line id="Línea_2793" data-name="Línea 2793" x2="52.601" transform="translate(350.616 90.618)" fill="none" stroke="#ced3ef" stroke-miterlimit="10" stroke-width="1.5"/>
            <line id="Línea_2794" data-name="Línea 2794" x2="23.689" transform="translate(375.369 100.832)" fill="none" stroke="#ced3ef" stroke-miterlimit="10" stroke-width="1.5"/>
            <path id="Trazado_875135" data-name="Trazado 875135" d="M584.656,150.137h18.1v9.9" transform="translate(-192.89 -123.314)" fill="none" stroke="#fff" stroke-miterlimit="10" stroke-width="1.5"/>
            <line id="Línea_2795" data-name="Línea 2795" x2="23.645" transform="translate(389.841 55.678)" fill="none" stroke="#fff" stroke-miterlimit="10" stroke-width="1.5"/>
            <path id="Trazado_875136" data-name="Trazado 875136" d="M561.584,184.768l-1.926,9.765h31.705" transform="translate(-192.538 -123.314)" fill="none" stroke="#fff" stroke-miterlimit="10" stroke-width="1.5"/>
            <line id="Línea_2796" data-name="Línea 2796" x2="39.135" transform="translate(351.088 145.361)" fill="none" stroke="#d5dcf7" stroke-miterlimit="10" stroke-width="1.5"/>
            <line id="Línea_2797" data-name="Línea 2797" x2="39.135" transform="translate(351.088 153.664)" fill="none" stroke="#d5dcf7" stroke-miterlimit="10" stroke-width="1.5"/>
            <line id="Línea_2798" data-name="Línea 2798" x2="39.135" transform="translate(351.088 161.966)" fill="none" stroke="#d5dcf7" stroke-miterlimit="10" stroke-width="1.5"/>
            <line id="Línea_2799" data-name="Línea 2799" x2="39.135" transform="translate(351.088 170.269)" fill="none" stroke="#d5dcf7" stroke-miterlimit="10" stroke-width="1.5"/>
            <line id="Línea_2800" data-name="Línea 2800" x1="4.717" transform="translate(341.587 145.361)" fill="none" stroke="#d5dcf7" stroke-miterlimit="10" stroke-width="5"/>
            <line id="Línea_2801" data-name="Línea 2801" x1="4.717" transform="translate(341.587 153.664)" fill="none" stroke="#d5dcf7" stroke-miterlimit="10" stroke-width="5"/>
            <line id="Línea_2802" data-name="Línea 2802" x1="4.717" transform="translate(341.587 161.966)" fill="none" stroke="#d5dcf7" stroke-miterlimit="10" stroke-width="5"/>
            <line id="Línea_2803" data-name="Línea 2803" x1="4.717" transform="translate(341.587 170.269)" fill="none" stroke="#d5dcf7" stroke-miterlimit="10" stroke-width="5"/>
            <rect id="Rectángulo_402264" data-name="Rectángulo 402264" width="67.384" height="9.428" transform="translate(193.269 -14.381)" fill="#d5dcf7"/>
            <rect id="Rectángulo_402265" data-name="Rectángulo 402265" width="68.383" height="4.714" transform="translate(193.269 5.826)" fill="#d5dcf7"/>
            <path id="Trazado_875137" data-name="Trazado 875137" d="M523.606,114.336c0,15.635,1.753,28.941-6.449,41.706h34.088c8.2-12.765,6.449-26.071,6.449-41.706Z" transform="translate(-191.94 -123.314)" fill="#e6ffad"/>
            <path id="Trazado_875138" data-name="Trazado 875138" d="M528.179,125.885l4.006-1.823c1.049-.477,2.439-.894,3.214-.033.369.409.471,1,.819,1.432a2.359,2.359,0,0,0,2.772.317c.914-.412,1.7-1.1,2.648-1.417a9.308,9.308,0,0,1,3.818-.054c3.051.278,8.537.207,8.537.207" transform="translate(-192.095 -123.314)" fill="none" stroke="#fff" stroke-miterlimit="10" stroke-width="1.5"/>
            <line id="Línea_2804" data-name="Línea 2804" x1="24.314" transform="translate(336.454 7.732)" fill="none" stroke="#fff" stroke-miterlimit="10" stroke-width="1.5"/>
            <line id="Línea_2805" data-name="Línea 2805" x1="24.314" transform="translate(335.485 14.532)" fill="none" stroke="#fff" stroke-miterlimit="10" stroke-width="1.5"/>
            <line id="Línea_2806" data-name="Línea 2806" x1="12.158" transform="translate(345.564 22.398)" fill="none" stroke="#fff" stroke-miterlimit="10" stroke-width="1.5"/>
            <path id="Trazado_875139" data-name="Trazado 875139" d="M554.021,109.211q-1.108,4.883-2.679,9.64a1.892,1.892,0,0,1-.633,1.048,1.28,1.28,0,0,1-1.743-.789,3.675,3.675,0,0,1,.095-2.181,61.144,61.144,0,0,1,2.463-7.511,5.988,5.988,0,0,1,1.369-2.292,2.132,2.132,0,0,1,2.456-.412,2.927,2.927,0,0,1,1.051,2.449,25.17,25.17,0,0,1-1.069,7.229q-.513,2.055-1.024,4.108" transform="translate(-192.386 -123.314)" fill="none" stroke="#fbad27" stroke-miterlimit="10" stroke-width="0.75"/>
            <path id="Trazado_875140" data-name="Trazado 875140" d="M182.923,289.475c-15.943,44.2-20.084,90.883-21.279,137.628l6.581,1.639c2.383-46.1,4.433-93.531,19.2-138.032" transform="translate(-186.937 -123.314)" fill="#7e9b6e"/>
            <path id="Trazado_875141" data-name="Trazado 875141" d="M183.116,325.18a2.866,2.866,0,0,1,.421-1.559c.822-1.218,2.619-1.118,4.017-.706,10.294,3.031,15.748,14.535,25,20.022,5.04,2.988,10.934,4.027,16.654,5.209a261.575,261.575,0,0,1,32.466,8.921q-1.664-12.751-4.463-25.314c-.978-4.39-2.085-8.821-4.3-12.722-6.027-10.627-18.582-15.01-29.543-20.176-2.163-1.02-4.632-2.637-4.511-5.053.15-2.982,3.962-4.069,6.9-3.963a35.323,35.323,0,0,1,16.569,4.849c-.857-.5-1.762-2.636-2.391-3.474q-1.378-1.837-2.915-3.545a53.692,53.692,0,0,0-6.685-6.26,54.589,54.589,0,0,0-15.977-8.736c-5.759-1.985-11.828-3.871-17.974-3.2a51.539,51.539,0,0,0-15.359,4.154c-4.253,1.893-8.01,5.5-12.67,6.3a63.555,63.555,0,0,1-7.872.452c-16.891.775-37.129,16.064-29.052,35.435,2.068,4.961,6.016,8.913,10.414,11.931,14.879,10.208,34.074,10.392,51.366,15.322-4.79-4.8-9.645-10.394-10.085-17.209-.015-.221-.023-.446-.017-.671m33.942-41.855a2.714,2.714,0,0,1-.857,2.375,11.808,11.808,0,0,1-5.079,2.471c-6.36,1.735-20.416,1.963-12.689-4.581,6.864-5.812,17.915-4.8,18.625-.265" transform="translate(-186.486 -123.314)" fill="#7e9b6e"/>
            <path id="Trazado_875142" data-name="Trazado 875142" d="M168.915,279.92c7.113,2.564,17.9,8.9,26.354,13.858,27.6,16.194,45.488,34.763,67,63.393" transform="translate(-187.039 -123.314)" fill="none" stroke="#54683c" stroke-linejoin="round" stroke-width="1.5"/>
            <path id="Trazado_875143" data-name="Trazado 875143" d="M222.024,345.508c-8.954-10.084-11-25.877-4.925-37.966" transform="translate(-187.668 -123.314)" fill="none" stroke="#54683c" stroke-linejoin="round" stroke-width="1.5"/>
            <path id="Trazado_875144" data-name="Trazado 875144" d="M229.208,318.448a42.643,42.643,0,0,1,27.709,6.522" transform="translate(-187.888 -123.314)" fill="none" stroke="#54683c" stroke-linejoin="round" stroke-width="1.5"/>
            <path id="Trazado_875145" data-name="Trazado 875145" d="M181.592,285.9a40.387,40.387,0,0,1,21.347-9.425,63.47,63.47,0,0,1,23.624,1.558" transform="translate(-187.218 -123.314)" fill="none" stroke="#54683c" stroke-linejoin="round" stroke-width="1.5"/>
            <path id="Trazado_875146" data-name="Trazado 875146" d="M219.114,175.923c-4.683-6.03-10.735-11.914-17.93-14.612a25.87,25.87,0,0,0-18.083-.119,49.276,49.276,0,0,0-11.211-4.27c-5.4-1.219-11.3-1.006-16.175,1.656s-8.466,8.076-8.048,13.676c.445,5.959,5.042,10.736,9.908,14.106a53.077,53.077,0,0,0,18.261,8.074,15.912,15.912,0,0,1,13.7-12.977,4.94,4.94,0,0,1,3.717.712,3.879,3.879,0,0,1,1.216,3.535,7.905,7.905,0,0,1-1.61,3.516c-1.636,2.226-9.276,7.794-7.669,11.161.429.9,2.053,1.225,2.895,1.509a141.364,141.364,0,0,0,16.417,3.993c6.968,1.457,14.369,2.172,21.2,4.171.82-11.19.538-24.951-6.591-34.131m-38.676,3.718a15.936,15.936,0,0,1-9.73.28c-1.23-.366-2.574-1.08-2.812-2.358a2.646,2.646,0,0,1,.922-2.354,5.822,5.822,0,0,1,2.327-1.153c3-.874,10.53-1.7,12.682,1.5.04.06.079.121.115.184,1.133,1.952-2.179,3.44-3.5,3.9" transform="translate(-186.74 -123.314)" fill="#a8c38b"/>
            <path id="Trazado_875147" data-name="Trazado 875147" d="M183.933,161.146s31.8,29.156,42.6,48.862" transform="translate(-187.251 -123.314)" fill="none" stroke="#54683c" stroke-linejoin="round" stroke-width="1.5"/>
            <path id="Trazado_875148" data-name="Trazado 875148" d="M153.917,183.981c-.331-5.394,2.6-10.67,6.841-13.858a24.6,24.6,0,0,1,14.884-4.454,58.426,58.426,0,0,1,15.5,2.658" transform="translate(-186.828 -123.314)" fill="none" stroke="#54683c" stroke-linejoin="round" stroke-width="1.5"/>
            <path id="Trazado_875149" data-name="Trazado 875149" d="M196.6,204.127a23.13,23.13,0,0,1,4.891-13.9,12.458,12.458,0,0,1,6.621-4.481" transform="translate(-187.429 -123.314)" fill="none" stroke="#54683c" stroke-linejoin="round" stroke-width="1.5"/>
            <path id="Trazado_875150" data-name="Trazado 875150" d="M200.473,177.481a31.586,31.586,0,0,1,24.147,6.912" transform="translate(-187.483 -123.314)" fill="none" stroke="#54683c" stroke-linejoin="round" stroke-width="1.5"/>
            <path id="Trazado_875151" data-name="Trazado 875151" d="M300.053,325.246s-26.633,29.385-34.524,66.644c-4.795,22.64,2.47,88.318,2.47,88.318H441.235s-7.966-51.319-15.918-77.481-28.709-68.7-28.709-68.7" transform="translate(-188.376 -123.314)" fill="#292749"/>
            <path id="Trazado_875152" data-name="Trazado 875152" d="M282.154,480.208s-7.21-70.3-1.358-92.3c6.479-24.351,22.677-59.144,22.677-59.144" transform="translate(-188.582 -123.314)" fill="none" stroke="#434375" stroke-miterlimit="10" stroke-width="1.5"/>
            <path id="Trazado_875153" data-name="Trazado 875153" d="M451.641,195.286c.916-9.3,4.028-16.066,8.044-24.48a131.247,131.247,0,0,0,8.138-22.831c.334-1.326.753-2.917,2.041-3.323,1.84-.579,3.189,1.782,3.559,3.7a30.261,30.261,0,0,1-.019,11.53,47.818,47.818,0,0,1,24.1-22.212c1.924-.79,2.52,1.861,1.462,4.3a7.037,7.037,0,0,1-2.259,2.467c-5.992,4.85-9.133,9.559-12.178,16.7a42.92,42.92,0,0,1,26.534-17.212,1.4,1.4,0,0,1,1.2.136,1.316,1.316,0,0,1,.319,1.076c-.1,2.344-1.114,4.1-3.34,4.742,1.41-.327,1.324,1.836,1.083,3.282s-3.326,6.269-4.343,7.312c-4.744,4.864-6.234,6.728-9.4,12.768.669-1.277,2.879-2.6,3.975-3.545,1.551-1.331,3.138-2.624,4.805-3.8s4.687-3.723,6.79-3.637c4.133.17-2.056,6.9-3.221,7.938a40.8,40.8,0,0,0-8.565,10.129c-1.734,3.04-2.924,6.37-4.59,9.449-3.965,7.325-10.408,12.884-16.709,18.27" transform="translate(-191.018 -123.314)" fill="#f18c76"/>
            <path id="Trazado_875154" data-name="Trazado 875154" d="M472.914,161.333a18.175,18.175,0,0,0,.363,6.159,66.745,66.745,0,0,1,1.364,8.917,15.782,15.782,0,0,1-1.8,8.714" transform="translate(-191.315 -123.314)" fill="none" stroke="#2a282c" stroke-linejoin="round" stroke-width="1.5"/>
            <path id="Trazado_875155" data-name="Trazado 875155" d="M509.516,149.926a72.853,72.853,0,0,0-17.891,18.994" transform="translate(-191.581 -123.314)" fill="none" stroke="#2a282c" stroke-linejoin="round" stroke-width="1.5"/>
            <path id="Trazado_875156" data-name="Trazado 875156" d="M494.339,151.4l-3.36,3.086c-1.229,1.13-2.461,2.261-3.611,3.474a36.6,36.6,0,0,0-4.014,5.061" transform="translate(-191.464 -123.314)" fill="none" stroke="#2a282c" stroke-linejoin="round" stroke-width="1.5"/>
            <path id="Trazado_875157" data-name="Trazado 875157" d="M492.657,176.719a111.882,111.882,0,0,0-11.764,14.625" transform="translate(-191.43 -123.314)" fill="none" stroke="#2a282c" stroke-linejoin="round" stroke-width="1.5"/>
            <path id="Trazado_875158" data-name="Trazado 875158" d="M356.162,161.519l3.859,20.355,16.8,2.261s-5.837,34.74-22.982,27.684S304.96,166.1,304.96,166.1l15.638,5,5.51-31.659" transform="translate(-188.954 -123.314)" fill="#f18c76"/>
            <path id="Trazado_875159" data-name="Trazado 875159" d="M376.395,185.3s-3.769,21.509-18.524,20.735-44.944-37.325-44.944-37.325S291.5,158.244,291.5,159.291s-3.1,65.062,0,91.831,3.873,74.124,3.873,74.124l107.006,12.577s-10.154-46.835-9.569-56.814,13.864-37.944,10.615-50.356-17.761-43.606-17.761-43.606Z" transform="translate(-188.745 -123.314)" fill="#fcde9d"/>
            <path id="Trazado_875160" data-name="Trazado 875160" d="M370.414,183.015s10.048,55.138,10.7,80.305,7.059,81.443,10.6,86.951c8.213,12.791,40.22,35.765,40.22,35.765s-15.554-80-19.472-97.217-.326-51.66-1.959-58.614-22.18-44.735-22.18-44.735Z" transform="translate(-189.875 -123.314)" fill="#8c3ef7"/>
            <path id="Trazado_875161" data-name="Trazado 875161" d="M374.527,183.635s14.471,1.583,22.389,3.412,13.086,8.541,20.014,23.929c6.185,13.735,9.943,23.372,9.943,23.372l22.721-46.641,46.878,14.207s-25.908,60.575-33.312,74.31-18.216,34.5-44.029,30.116c-17.177-2.919-34.37-53.248-34.37-53.248" transform="translate(-189.933 -123.314)" fill="#8c3ef7"/>
            <path id="Trazado_875162" data-name="Trazado 875162" d="M387.021,186.041l-1.788,35.55a68.777,68.777,0,0,1,13.057,9.863c-2.553,15.014-14.931,64.021-14.931,64.021" transform="translate(-190.057 -123.314)" fill="none" stroke="#d4b4fd" stroke-miterlimit="10" stroke-width="1"/>
            <line id="Línea_2807" data-name="Línea 2807" x2="25.163" y2="9.62" transform="translate(201.835 194.331)" fill="none" stroke="#d4b4fd" stroke-miterlimit="10" stroke-width="1"/>
            <path id="Trazado_875163" data-name="Trazado 875163" d="M366.356,183.015c6.211,55.184-7.983,137.4-7.983,137.4s-18.784-113.83-44.092-153.575" transform="translate(-189.085 -123.314)" fill="none" stroke="#2a282c" stroke-linejoin="round" stroke-width="2"/>
            <path id="Trazado_875164" data-name="Trazado 875164" d="M342.516,357.051l27.987-2.572V316.8l-27.987,2.572Z" transform="translate(-189.482 -123.314)" fill="#625cd1"/>
            <path id="Trazado_875165" data-name="Trazado 875165" d="M348.585,344.831l15.959-1.416a2.459,2.459,0,0,0,2.19-2.415V324.813a1.986,1.986,0,0,0-2.19-2.027L348.585,324.2a2.458,2.458,0,0,0-2.19,2.415V342.8a1.986,1.986,0,0,0,2.19,2.026" transform="translate(-189.537 -123.314)" fill="#7983ed"/>
            <path id="Trazado_875166" data-name="Trazado 875166" d="M355.962,332.8a2.881,2.881,0,0,1-2.505-2.928,3.573,3.573,0,0,1,3.182-3.51,2.886,2.886,0,0,1,3.183,2.945,3.594,3.594,0,0,1-2.505,3.373,4.487,4.487,0,0,1,4.282,4.6v3.543l-9.918.88v-3.543a5.591,5.591,0,0,1,4.283-5.358" transform="translate(-189.611 -123.314)" fill="#fff"/>
            <path id="Trazado_875167" data-name="Trazado 875167" d="M416.412,305.759a211.11,211.11,0,0,1-5.969-50.278c.01-4.485.163-8.978-.2-13.448a68.773,68.773,0,0,0-10.279-30.05" transform="translate(-190.291 -123.314)" fill="none" stroke="#2a282c" stroke-linejoin="round" stroke-width="1.5"/>
            <path id="Trazado_875168" data-name="Trazado 875168" d="M427.435,234.348s-8.957,16.774-13.071,27.332" transform="translate(-190.493 -123.314)" fill="none" stroke="#2a282c" stroke-linejoin="round" stroke-width="1.5"/>
            <line id="Línea_2808" data-name="Línea 2808" x1="10.864" y2="22.297" transform="translate(257.91 67.154)" fill="none" stroke="#2a282c" stroke-linejoin="round" stroke-width="1.5"/>
            <path id="Trazado_875169" data-name="Trazado 875169" d="M459.908,199.5a2.964,2.964,0,1,0,2.964-3.005A2.985,2.985,0,0,0,459.908,199.5Z" transform="translate(-191.134 -123.314)" fill="none" stroke="#2a282c" stroke-linejoin="round" stroke-width="1.5"/>
            <path id="Trazado_875170" data-name="Trazado 875170" d="M455.753,209.759a2.964,2.964,0,1,0,2.963-3.005A2.985,2.985,0,0,0,455.753,209.759Z" transform="translate(-191.076 -123.314)" fill="none" stroke="#2a282c" stroke-linejoin="round" stroke-width="1.5"/>
            <path id="Trazado_875171" data-name="Trazado 875171" d="M320.636,171.21c5.139,2.6,10.558,4.943,15.141,8.508" transform="translate(-189.174 -123.314)" fill="none" stroke="#2a282c" stroke-linejoin="round" stroke-width="1.5"/>
            <path id="Trazado_875172" data-name="Trazado 875172" d="M389.546,325.246,471.457,306.1l20.1-124.465L409.643,200.78Z" transform="translate(-190.144 -123.314)" fill="#f99c6e"/>
            <path id="Trazado_875173" data-name="Trazado 875173" d="M396.509,315.58l70.884-16.571L484.785,191.3,413.9,207.869Z" transform="translate(-190.242 -123.314)" fill="none" stroke="#ea7a4e" stroke-miterlimit="10" stroke-width="1.5"/>
            <path id="Trazado_875174" data-name="Trazado 875174" d="M428.718,182.6l78.463-17.671c-5.582,3.4-7.568,15.082-7.568,15.082l-83.029,19.241c1.348-15.075,12.134-16.652,12.134-16.652" transform="translate(-190.525 -123.314)" fill="#ced3ef"/>
            <path id="Trazado_875175" data-name="Trazado 875175" d="M478.358,180.49l-1.236,7.657-52.611,12.3,1.236-7.657Z" transform="translate(-190.636 -123.314)" fill="#ea7a4e"/>
            <path id="Trazado_875176" data-name="Trazado 875176" d="M437.364,187.85c-1.792-3.007-5.009-5.284-8.473-5.255l78.462-17.671a8.56,8.56,0,0,1,3.417-.769c3.464-.029,6.681,2.248,8.473,5.255a18.834,18.834,0,0,1,2.233,10.146l-1.843,10.8L511.811,238.8,429.9,257.952s9.512-52.882,9.7-59.956a18.834,18.834,0,0,0-2.233-10.146" transform="translate(-190.698 -123.314)" fill="#e5e7fc"/>
            <line id="Línea_2809" data-name="Línea 2809" x1="40.514" y2="9.471" transform="translate(262.628 109.446)" fill="none" stroke="#fff" stroke-miterlimit="10" stroke-width="1.5"/>
            <line id="Línea_2810" data-name="Línea 2810" x1="63.281" y2="14.793" transform="translate(256.111 95.653)" fill="none" stroke="#fff" stroke-miterlimit="10" stroke-width="1.5"/>
            <line id="Línea_2811" data-name="Línea 2811" x1="63.281" y2="14.793" transform="translate(257.068 86.498)" fill="none" stroke="#fff" stroke-miterlimit="10" stroke-width="1.5"/>
            <line id="Línea_2812" data-name="Línea 2812" x1="63.281" y2="14.793" transform="translate(258.025 77.343)" fill="none" stroke="#fff" stroke-miterlimit="10" stroke-width="1.5"/>
            <line id="Línea_2813" data-name="Línea 2813" x1="63.281" y2="14.793" transform="translate(258.982 68.188)" fill="none" stroke="#fff" stroke-miterlimit="10" stroke-width="1.5"/>
            <line id="Línea_2814" data-name="Línea 2814" x1="63.281" y2="14.793" transform="translate(259.939 59.033)" fill="none" stroke="#fff" stroke-miterlimit="10" stroke-width="1.5"/>
            <line id="Línea_2815" data-name="Línea 2815" x1="63.281" y2="14.793" transform="translate(257.938 50.878)" fill="none" stroke="#fff" stroke-miterlimit="10" stroke-width="1.5"/>
            <line id="Línea_2816" data-name="Línea 2816" x1="63.281" y2="14.793" transform="translate(252.231 45.033)" fill="none" stroke="#fff" stroke-miterlimit="10" stroke-width="1.5"/>
            <path id="Trazado_875177" data-name="Trazado 875177" d="M362.125,102.861a34.871,34.871,0,0,1,9.661,9.181c2.681,3.9,3.467,8.779,6.259,12.519a8.732,8.732,0,0,0,3.709,3.013c2.158.84,4.563.463,6.872.571,8.409.395,14.543,7.15,17.828,14.557,4.018,9.062,4.06,19.01,3.362,28.723l-51.532-1.807-11.683-56.3" transform="translate(-189.54 -123.314)" fill="#4f2d31"/>
            <path id="Trazado_875178" data-name="Trazado 875178" d="M370.428,112.654c4.939,2.2,6.872,8.444,11.372,11.458,4.179,2.8,9.184,2.124,13.84,3.17,19.232,4.321,22.244,28.085,20.1,44.626" transform="translate(-189.875 -123.314)" fill="none" stroke="#4f2d31" stroke-miterlimit="10" stroke-width="1.5"/>
            <path id="Trazado_875179" data-name="Trazado 875179" d="M373.574,126.892c2.361,6.433,7.692,9.426,13.9,11.053,7.263,1.9,11.742,7.256,14.252,14.284,1.944,5.444,1.635,12.535,1.244,18.312" transform="translate(-189.919 -123.314)" fill="none" stroke="#70474f" stroke-miterlimit="10" stroke-width="1.5"/>
            <path id="Trazado_875180" data-name="Trazado 875180" d="M316.634,123.385a32.1,32.1,0,0,1,5.636-19.72A25.186,25.186,0,0,1,346.6,93.5c12.025,1.865,17.475,11.982,20.643,22.974,1.564,5.421,2.182,10.859,3.191,16.376,1.029,5.623,2.648,11.522.917,17.182a16.419,16.419,0,0,1-9.009,9.927c-5.077,2.325-10.972,2.328-16.368.926-16.335-4.243-28.711-20.788-29.335-37.5" transform="translate(-189.118 -123.314)" fill="#f18c76"/>
            <path id="Trazado_875181" data-name="Trazado 875181" d="M361.169,125.148a19.38,19.38,0,0,0,2.493,7.83,22.276,22.276,0,0,1,1.671,3.085,2.277,2.277,0,0,1,.18,1.208c-.2,1.091-1.572,1.685-2.758,2.093" transform="translate(-189.745 -123.314)" fill="none" stroke="#2a282c" stroke-linejoin="round" stroke-width="1.5"/>
            <path id="Trazado_875182" data-name="Trazado 875182" d="M363.071,143.622c-2.511,2.455-6.668-.5-5.273-3.745" transform="translate(-189.693 -123.314)" fill="none" stroke="#2a282c" stroke-linejoin="round" stroke-width="1.5"/>
            <path id="Trazado_875183" data-name="Trazado 875183" d="M349.225,126.259c.332,1.478,1.386,2.494,2.355,2.27s1.485-1.6,1.153-3.081-1.386-2.494-2.355-2.27-1.485,1.6-1.153,3.081" transform="translate(-189.575 -123.314)" fill="#2a282c"/>
            <path id="Trazado_875184" data-name="Trazado 875184" d="M365.506,126.058c.332,1.478,1.386,2.494,2.355,2.27s1.485-1.6,1.153-3.081-1.386-2.494-2.355-2.27-1.485,1.6-1.153,3.081" transform="translate(-189.804 -123.314)" fill="#2a282c"/>
            <path id="Trazado_875185" data-name="Trazado 875185" d="M352.7,116.927a8.1,8.1,0,0,0-5.374-.08,5.812,5.812,0,0,0-3.647,3.854" transform="translate(-189.499 -123.314)" fill="none" stroke="#2a282c" stroke-linejoin="round" stroke-width="1.5"/>
            <path id="Trazado_875186" data-name="Trazado 875186" d="M369.022,116.35a4.832,4.832,0,0,0-6.885.877" transform="translate(-189.758 -123.314)" fill="none" stroke="#2a282c" stroke-linejoin="round" stroke-width="1.5"/>
            <path id="Trazado_875187" data-name="Trazado 875187" d="M356.69,162.442a32.248,32.248,0,0,1-20.472-5.306" transform="translate(-189.394 -123.314)" fill="none" stroke="#2a282c" stroke-linejoin="round" stroke-width="1.5"/>
            <path id="Trazado_875188" data-name="Trazado 875188" d="M317.773,126.294s7.769.3,13.743-1.72a21.062,21.062,0,0,0,11.98-10.8A23.841,23.841,0,0,0,344.913,97.5s15.829,1.435,21.77,20.239c0,0,6.344-14.82-5.549-24.691-14.645-12.157-31.471-4.781-31.471-4.781s-13.1-9.279-27.223.914c-13.348,9.636-7.157,31.776-16.374,36.475s-24.023.566-30.092,13.954-1.045,26.761-1.045,26.761l76.823,4.97s-7.251-6.312-7.4-15.837c-.139-8.689,2.37-7.183-1.22-16.234s-5.355-12.971-5.355-12.971" transform="translate(-188.222 -123.314)" fill="#4f2d31"/>
            <path id="Trazado_875189" data-name="Trazado 875189" d="M341.139,98.474c.884,3.568-.658,8.355-1.848,11.687a21.052,21.052,0,0,1-8.726,10.509,36.047,36.047,0,0,1-9.8,4.12c-1.537.421-.5,2.077-.217,3.2.424,1.708.813,3.427,1.086,5.167a24.273,24.273,0,0,1-.292,10.287c-1.177,4.221-3.914,7.892-4.873,12.169-1.16,5.173,1.227,9.929,3.118,14.875" transform="translate(-189.111 -123.314)" fill="none" stroke="#70474f" stroke-miterlimit="10" stroke-width="1.5"/>
            <path id="Trazado_875190" data-name="Trazado 875190" d="M301.21,92.513c-8.437,6.853-5.835,23.256-14.548,29.83-7.011,5.29-17.417,4.253-25.386,7.274-6.526,2.474-10.811,7.991-12.707,14.685-2.439,8.609-2.131,13.258-.649,21.957" transform="translate(-188.135 -123.314)" fill="none" stroke="#4f2d31" stroke-miterlimit="10" stroke-width="1.5"/>
            <path id="Trazado_875191" data-name="Trazado 875191" d="M295.953,115.548c-1.5,5.81-3.178,11.937-7.086,15.8a21.108,21.108,0,0,1-8.45,4.666c-14.1,4.714-15.09,19.227-11.529,31.132" transform="translate(-188.422 -123.314)" fill="none" stroke="#70474f" stroke-miterlimit="10" stroke-width="1.5"/>
            <path id="Trazado_875192" data-name="Trazado 875192" d="M328.722,129.834c-1.143-3.07-3.871-6.141-7.293-6.353-3.247-.2-6.085,2.417-6.9,5.481-1.126,4.206.081,9.061,2.434,12.619,2.4,3.629,7.174,6.778,11.377,4.123a6.483,6.483,0,0,0,2.978-4.571" transform="translate(-189.082 -123.314)" fill="#f18c76"/>
            <path id="Trazado_875193" data-name="Trazado 875193" d="M319.643,130.608a90.268,90.268,0,0,1,7.95,7.573" transform="translate(-189.16 -123.314)" fill="none" stroke="#2a282c" stroke-linejoin="round" stroke-width="1.5"/>
            <path id="Trazado_875194" data-name="Trazado 875194" d="M325.743,125.172a15.8,15.8,0,0,1,3.351,5.155" transform="translate(-189.246 -123.314)" fill="none" stroke="#2a282c" stroke-linejoin="round" stroke-width="1.5"/>
            <path id="Trazado_875195" data-name="Trazado 875195" d="M323.306,146.4a6.941,6.941,0,0,0,7.968-3.664" transform="translate(-189.212 -123.314)" fill="none" stroke="#2a282c" stroke-linejoin="round" stroke-width="1.5"/>
            <path id="Trazado_875196" data-name="Trazado 875196" d="M323.076,146.9a2.452,2.452,0,1,0,2.176-2.738,2.461,2.461,0,0,0-2.176,2.738" transform="translate(-189.209 -123.314)" fill="#fff"/>
            <path id="Trazado_875197" data-name="Trazado 875197" d="M333.736,88.107c1.681-1.512,2.194-3.959,2.259-6.238.2-7.035-3.524-14.405-9.926-17.117a8.688,8.688,0,0,0-6.141-.511,8.136,8.136,0,0,0-4.827,5.645c-1.3,4.673.648,9.776,3.813,13.417s7.409,6.1,11.573,8.5" transform="translate(-189.091 -123.314)" fill="#4f2d31"/>
            <path id="Trazado_875198" data-name="Trazado 875198" d="M321.315,64.88c-3.06-.4-6.132,1.624-7.533,4.619a12.109,12.109,0,0,0,.157,9.821,14.893,14.893,0,0,0,6.637,6.933" transform="translate(-189.064 -123.314)" fill="none" stroke="#4f2d31" stroke-miterlimit="10" stroke-width="1.5"/>
            <path id="Trazado_875199" data-name="Trazado 875199" d="M302.666,157.717l18.081,12.646s17.927,42.565,17.971,90.528-1.718,82.663-8.754,90.388c-16.346,17.947-62.843,22-62.843,22l26.269-180.966Z" transform="translate(-188.421 -123.314)" fill="#8c3ef7"/>
            <path id="Trazado_875200" data-name="Trazado 875200" d="M308.144,163.909c8.564,29.309,7.6,27.729,17.993,56.548-3.94,1.717-12.678,12.652-12.678,12.652s20.668,45.858,23.9,71.733" transform="translate(-188.999 -123.314)" fill="none" stroke="#d4b4fd" stroke-miterlimit="10" stroke-width="1"/>
            <line id="Línea_2817" data-name="Línea 2817" x1="29.105" y2="10.58" transform="translate(93.572 203.033)" fill="none" stroke="#d4b4fd" stroke-miterlimit="10" stroke-width="1"/>
            <path id="Trazado_875201" data-name="Trazado 875201" d="M346.821,259.663l31.228-12.456a31.628,31.628,0,0,1,17.547-2.665c4.966.232,10.335.62,14.108,3.9a21.786,21.786,0,0,1,4.671,6.737q2,3.891,3.837,7.86c.448.966.856,2.216.149,3.007a2.194,2.194,0,0,1-.959.564,5.656,5.656,0,0,1-3.575.007l2.482,4.467a3,3,0,0,1,.519,1.571,2.006,2.006,0,0,1-1.812,1.684c-.88.118-1.229-1.22-2.07-1.511a4.216,4.216,0,0,1,.593,3.029c-1.375,2.411-6.1.363-6.1.363a9.59,9.59,0,0,1,1.8,1.333c1.663,1.913-1.816,2.841-3.018,2.6-5.427-1.071-12.766-2.246-18.334-1.447-6.417.922-11.678,5.495-17.685,7.967-6.728,2.769-14.2,2.827-21.457,2.846" transform="translate(-189.543 -123.314)" fill="#f18c76"/>
            <path id="Trazado_875202" data-name="Trazado 875202" d="M407.954,276.223a36.7,36.7,0,0,0-11.788-4.938,25.029,25.029,0,0,0-12.822.636" transform="translate(-190.057 -123.314)" fill="none" stroke="#2a282c" stroke-linejoin="round" stroke-width="1.5"/>
            <path id="Trazado_875203" data-name="Trazado 875203" d="M413.507,272.831c-4.77-6.317-11.643-11.814-19.653-12.757-.367-.044-.736-.077-1.1-.1a30.137,30.137,0,0,0-5.951.227" transform="translate(-190.105 -123.314)" fill="none" stroke="#2a282c" stroke-linejoin="round" stroke-width="1.5"/>
            <path id="Trazado_875204" data-name="Trazado 875204" d="M414.478,266.621a39.42,39.42,0,0,0-8.8-10.563,21.19,21.19,0,0,0-12.5-4.936" transform="translate(-190.195 -123.314)" fill="none" stroke="#2a282c" stroke-linejoin="round" stroke-width="1.5"/>
            <path id="Trazado_875205" data-name="Trazado 875205" d="M342.392,257.548l16.425-4.456,14.127,40.61L333.7,308.926" transform="translate(-189.358 -123.314)" fill="#fff"/>
            <path id="Trazado_875206" data-name="Trazado 875206" d="M312.754,203.652l-9.808,61.392,49.569-11.073,14.571,45.509s-72.207,25.881-95.188,29.775-33.56-20.615-30.278-44.8S262.342,192,263.655,184.135s11.162-32.688,26.118-31.578c8.738.648,9.855,3.1,15.629,7.108" transform="translate(-188.054 -123.314)" fill="#8c3ef7"/>
            <path id="Trazado_875207" data-name="Trazado 875207" d="M338.273,310.379s-52.436,17.469-69.124,20.1" transform="translate(-188.45 -123.314)" fill="none" stroke="#2a282c" stroke-linejoin="round" stroke-width="1.5"/>
            <path id="Trazado_875208" data-name="Trazado 875208" d="M313.638,203.652l-9.808,61.392,35.406-7.909" transform="translate(-188.938 -123.314)" fill="none" stroke="#2a282c" stroke-linejoin="round" stroke-width="1.5"/>
            <path id="Trazado_875209" data-name="Trazado 875209" d="M303.9,264.92a263.387,263.387,0,0,0-28.829,8.413" transform="translate(-188.533 -123.314)" fill="none" stroke="#2a282c" stroke-linejoin="round" stroke-width="1.5"/>
            <line id="Línea_2818" data-name="Línea 2818" x1="23.74" y2="7.692" transform="translate(152.105 166.211)" fill="none" stroke="#2a282c" stroke-linejoin="round" stroke-width="1.5"/>
            <path id="Trazado_875234" data-name="Trazado 875234" d="M2.307-.005a2.31,2.31,0,0,1,2.3,2.333A2.335,2.335,0,0,1,2.3,4.671a2.31,2.31,0,0,1-2.3-2.333A2.335,2.335,0,0,1,2.307-.005Z" transform="translate(162.886 160.406) rotate(-9.217)" fill="none" stroke="#2a282c" stroke-width="1.5"/>
            <path id="Trazado_875235" data-name="Trazado 875235" d="M2.307-.005a2.31,2.31,0,0,1,2.3,2.333A2.335,2.335,0,0,1,2.3,4.671a2.31,2.31,0,0,1-2.3-2.333A2.335,2.335,0,0,1,2.307-.005Z" transform="translate(152.577 164.277) rotate(-9.217)" fill="none" stroke="#2a282c" stroke-width="1.5"/>
          </g>
        </g>
        <g id="Grupo_1101386" data-name="Grupo 1101386">
          <g id="Grupo_1101385" data-name="Grupo 1101385" clip-path="url(#clip-path-3)">
            <path id="Trazado_875211" data-name="Trazado 875211" d="M361.711,103.171a34.871,34.871,0,0,1,9.661,9.181c2.681,3.9,3.467,8.779,6.259,12.519a8.732,8.732,0,0,0,3.709,3.013c2.158.84,4.563.463,6.872.571,8.409.4,14.543,7.15,17.828,14.557,4.017,9.062,4.06,19.01,3.362,28.723l-51.532-1.807-11.683-56.3" transform="translate(-4.872)" fill="#4f2d31"/>
            <path id="Trazado_875212" data-name="Trazado 875212" d="M370.014,112.963c4.938,2.2,6.872,8.444,11.372,11.458,4.179,2.8,9.184,2.124,13.84,3.17,19.232,4.321,22.243,28.085,20.1,44.626" transform="translate(-5.207)" fill="none" stroke="#4f2d31" stroke-miterlimit="10" stroke-width="1.5"/>
            <path id="Trazado_875213" data-name="Trazado 875213" d="M373.16,127.2c2.361,6.433,7.692,9.426,13.9,11.053,7.263,1.9,11.742,7.256,14.252,14.284,1.944,5.444,1.635,12.535,1.244,18.312" transform="translate(-5.251)" fill="none" stroke="#70474f" stroke-miterlimit="10" stroke-width="1.5"/>
            <path id="Trazado_875214" data-name="Trazado 875214" d="M316.22,123.694a32.1,32.1,0,0,1,5.636-19.72,25.186,25.186,0,0,1,24.326-10.163c12.025,1.865,17.475,11.982,20.643,22.974,1.564,5.421,2.182,10.859,3.191,16.376,1.029,5.623,2.648,11.522.917,17.182a16.419,16.419,0,0,1-9.009,9.927c-5.077,2.325-10.972,2.328-16.368.926-16.335-4.243-28.711-20.788-29.335-37.5" transform="translate(-4.45)" fill="#f18c76"/>
            <path id="Trazado_875215" data-name="Trazado 875215" d="M360.755,125.458a19.379,19.379,0,0,0,2.493,7.83,22.276,22.276,0,0,1,1.671,3.085,2.276,2.276,0,0,1,.18,1.208c-.2,1.091-1.572,1.685-2.758,2.093" transform="translate(-5.077)" fill="none" stroke="#2a282c" stroke-linejoin="round" stroke-width="1.5"/>
            <path id="Trazado_875216" data-name="Trazado 875216" d="M362.657,143.932c-2.511,2.455-6.668-.5-5.272-3.745" transform="translate(-5.025)" fill="none" stroke="#2a282c" stroke-linejoin="round" stroke-width="1.5"/>
            <path id="Trazado_875217" data-name="Trazado 875217" d="M348.811,126.568c.332,1.478,1.386,2.494,2.355,2.27s1.485-1.6,1.153-3.081-1.386-2.494-2.355-2.27-1.485,1.6-1.153,3.081" transform="translate(-4.907)" fill="#2a282c"/>
            <path id="Trazado_875218" data-name="Trazado 875218" d="M365.092,126.367c.332,1.478,1.386,2.494,2.355,2.27s1.485-1.6,1.153-3.081-1.386-2.494-2.355-2.27-1.485,1.6-1.153,3.081" transform="translate(-5.136)" fill="#2a282c"/>
            <path id="Trazado_875219" data-name="Trazado 875219" d="M352.287,117.237a8.1,8.1,0,0,0-5.374-.08,5.812,5.812,0,0,0-3.647,3.854" transform="translate(-4.831)" fill="none" stroke="#2a282c" stroke-linejoin="round" stroke-width="1.5"/>
            <path id="Trazado_875220" data-name="Trazado 875220" d="M368.608,116.66a4.832,4.832,0,0,0-6.885.877" transform="translate(-5.09)" fill="none" stroke="#2a282c" stroke-linejoin="round" stroke-width="1.5"/>
            <path id="Trazado_875221" data-name="Trazado 875221" d="M356.276,162.751a32.248,32.248,0,0,1-20.472-5.306" transform="translate(-4.726)" fill="none" stroke="#2a282c" stroke-linejoin="round" stroke-width="1.5"/>
            <path id="Trazado_875222" data-name="Trazado 875222" d="M317.358,126.6s7.769.3,13.742-1.72a21.057,21.057,0,0,0,11.981-10.8A23.841,23.841,0,0,0,344.5,97.805s15.829,1.435,21.77,20.239c0,0,6.343-14.82-5.549-24.691-14.645-12.157-31.471-4.781-31.471-4.781s-13.1-9.279-27.224.914c-13.347,9.636-7.157,31.776-16.373,36.475s-24.023.566-30.093,13.954-1.045,26.761-1.045,26.761l76.824,4.97s-7.252-6.312-7.4-15.837c-.139-8.689,2.369-7.183-1.221-16.234s-5.355-12.971-5.355-12.971" transform="translate(-3.554)" fill="#4f2d31"/>
            <path id="Trazado_875223" data-name="Trazado 875223" d="M340.725,98.784c.884,3.568-.658,8.355-1.848,11.687a21.052,21.052,0,0,1-8.726,10.509,36.047,36.047,0,0,1-9.8,4.12c-1.537.421-.5,2.077-.217,3.2.424,1.708.813,3.427,1.086,5.167a24.273,24.273,0,0,1-.292,10.287c-1.177,4.221-3.914,7.892-4.873,12.169-1.16,5.173,1.226,9.929,3.119,14.875" transform="translate(-4.443)" fill="none" stroke="#70474f" stroke-miterlimit="10" stroke-width="1.5"/>
            <path id="Trazado_875224" data-name="Trazado 875224" d="M300.8,92.822c-8.437,6.853-5.835,23.256-14.548,29.83-7.011,5.29-17.417,4.253-25.386,7.274-6.526,2.474-10.811,7.991-12.707,14.685-2.439,8.609-2.131,13.258-.649,21.957" transform="translate(-3.467)" fill="none" stroke="#4f2d31" stroke-miterlimit="10" stroke-width="1.5"/>
            <path id="Trazado_875225" data-name="Trazado 875225" d="M295.539,115.858c-1.5,5.81-3.178,11.937-7.086,15.8a21.108,21.108,0,0,1-8.45,4.666c-14.1,4.714-15.09,19.227-11.529,31.132" transform="translate(-3.753)" fill="none" stroke="#70474f" stroke-miterlimit="10" stroke-width="1.5"/>
            <path id="Trazado_875226" data-name="Trazado 875226" d="M328.307,130.143c-1.142-3.07-3.87-6.141-7.293-6.353-3.247-.2-6.084,2.417-6.9,5.481-1.126,4.206.081,9.061,2.433,12.619,2.4,3.629,7.175,6.778,11.378,4.123a6.486,6.486,0,0,0,2.978-4.571" transform="translate(-4.414)" fill="#f18c76"/>
            <path id="Trazado_875227" data-name="Trazado 875227" d="M319.229,130.917a90.268,90.268,0,0,1,7.95,7.573" transform="translate(-4.492)" fill="none" stroke="#2a282c" stroke-linejoin="round" stroke-width="1.5"/>
            <path id="Trazado_875228" data-name="Trazado 875228" d="M325.329,125.482a15.8,15.8,0,0,1,3.351,5.155" transform="translate(-4.578)" fill="none" stroke="#2a282c" stroke-linejoin="round" stroke-width="1.5"/>
            <path id="Trazado_875229" data-name="Trazado 875229" d="M322.892,146.711a6.941,6.941,0,0,0,7.968-3.664" transform="translate(-4.544)" fill="none" stroke="#2a282c" stroke-linejoin="round" stroke-width="1.5"/>
            <path id="Trazado_875230" data-name="Trazado 875230" d="M322.661,147.205a2.452,2.452,0,1,0,2.176-2.738,2.461,2.461,0,0,0-2.176,2.738" transform="translate(-4.54)" fill="#fff"/>
            <path id="Trazado_875231" data-name="Trazado 875231" d="M333.322,88.417c1.681-1.512,2.194-3.959,2.259-6.238.2-7.035-3.524-14.4-9.926-17.117a8.688,8.688,0,0,0-6.141-.511,8.136,8.136,0,0,0-4.827,5.645c-1.3,4.673.648,9.776,3.813,13.417s7.409,6.1,11.573,8.5" transform="translate(-4.423)" fill="#4f2d31"/>
            <path id="Trazado_875232" data-name="Trazado 875232" d="M320.9,65.189c-3.06-.4-6.132,1.624-7.533,4.619a12.109,12.109,0,0,0,.157,9.821,14.893,14.893,0,0,0,6.637,6.933" transform="translate(-4.396)" fill="none" stroke="#4f2d31" stroke-miterlimit="10" stroke-width="1.5"/>
          </g>
        </g>
      </g>
    </g>
    <circle id="Elipse_11601" data-name="Elipse 11601" cx="10" cy="10" r="10" transform="translate(200 4149.256) rotate(180)" fill="#fe80a7"/>
    <circle id="Elipse_11602" data-name="Elipse 11602" cx="10" cy="10" r="10" transform="translate(200 4128.491) rotate(180)" fill="#7b40f2"/>
    <circle id="Elipse_11599" data-name="Elipse 11599" cx="10" cy="10" r="10" transform="translate(200 4104.745) rotate(180)" fill="#0feeff"/>
    <circle id="Elipse_11600" data-name="Elipse 11600" cx="10" cy="10" r="10" transform="translate(200 4080.998) rotate(180)" fill="#ceff27"/>
  </g>
</svg>
