<svg xmlns="http://www.w3.org/2000/svg" xmlns:xlink="http://www.w3.org/1999/xlink" width="400" height="274" viewBox="0 0 400 274">
  <defs>
    <clipPath id="clip-path">
      <rect id="Rectángulo_402288" data-name="Rectángulo 402288" width="400" height="274" transform="translate(214.102 3922)" fill="#fff" stroke="#707070" stroke-width="1"/>
    </clipPath>
    <clipPath id="clip-path-2">
      <rect id="Rectángulo_402287" data-name="Rectángulo 402287" width="933.193" height="636.685" fill="none"/>
    </clipPath>
    <clipPath id="clip-path-3">
      <path id="Rectángulo_402284" data-name="Rectángulo 402284" d="M17.752,0H379.723a17.751,17.751,0,0,1,17.751,17.751v182.52a17.751,17.751,0,0,1-17.751,17.751H17.751A17.751,17.751,0,0,1,0,200.271V17.752A17.752,17.752,0,0,1,17.752,0Z" fill="none"/>
    </clipPath>
    <clipPath id="clip-path-4">
      <rect id="Rectángulo_402282" data-name="Rectángulo 402282" width="21.958" height="22.449" fill="none"/>
    </clipPath>
    <clipPath id="clip-path-6">
      <rect id="Rectángulo_402285" data-name="Rectángulo 402285" width="19.351" height="18.931" fill="none"/>
    </clipPath>
  </defs>
  <g id="Grupo_1101402" data-name="Grupo 1101402" transform="translate(-180.051 -3925)">
    <g id="Enmascarar_grupo_1098778" data-name="Enmascarar grupo 1098778" transform="translate(-34.051 3)" clip-path="url(#clip-path)">
      <g id="Grupo_1101401" data-name="Grupo 1101401" transform="translate(-64.595 3814.423)">
        <g id="Grupo_1101400" data-name="Grupo 1101400" clip-path="url(#clip-path-2)">
          <g id="Grupo_1101394" data-name="Grupo 1101394" transform="translate(279.875 162.913)">
            <g id="Grupo_1101393" data-name="Grupo 1101393" clip-path="url(#clip-path-3)">
              <rect id="Rectángulo_402268" data-name="Rectángulo 402268" width="931.33" height="634.78" transform="translate(-278.944 -161.961)" fill="#fff"/>
              <rect id="Rectángulo_402269" data-name="Rectángulo 402269" width="931.33" height="634.78" transform="translate(-278.944 -161.961)" fill="none" stroke="#d5dcf7" stroke-miterlimit="10" stroke-width="1.5"/>
              <path id="Trazado_875236" data-name="Trazado 875236" d="M470.975,194.942a198.44,198.44,0,0,1-89.569-37.261c-39.563-29.311-122.354-79.189-201.332-54.345C71.139,137.605,70.652,236.739,99.027,290.589S328.618,502.133,589.479,477.042C822.912,454.588,868.4,197.575,743.9,151.068c-107.981-40.337-144.82,62.441-272.93,43.874" transform="translate(-259.753 -136.867)" fill="#e5e7fc"/>
              <path id="Trazado_875237" data-name="Trazado 875237" d="M356.059,184.983l.392,2.035.442,2.215.944,4.483c.649,3,1.349,5.995,2.066,8.98s1.5,5.949,2.3,8.893,1.64,5.864,2.534,8.744,1.824,5.726,2.8,8.518,2.02,5.529,3.119,8.185,2.245,5.232,3.461,7.682,2.485,4.774,3.8,6.891a47.215,47.215,0,0,0,4.023,5.576,21.688,21.688,0,0,0,3.671,3.488,9.917,9.917,0,0,0,1.344.824,5.47,5.47,0,0,0,.965.381.862.862,0,0,1,.108.03l.555.1,1.125.2,2.251.39,4.538.752,4.569.73,4.591.715c3.067.471,6.147.967,9.237,1.411l4.637.712c1.547.225,3.1.467,4.644.711l2.322.355,2.32.371c.775.127,1.542.236,2.313.371.755.128,1.557.251,2.248.383l.642.124a13.66,13.66,0,0,1,10.682,15.962,13.516,13.516,0,0,1-11.877,11.094l-2.544.248c-.826.08-1.655.14-2.477.2-1.649.135-3.293.235-4.937.322l-2.466.133-2.465.093c-1.643.052-3.288.112-4.934.146-1.645.019-3.292.041-4.94.043s-3.3.011-4.951-.018c-3.3-.039-6.616-.149-9.937-.3-1.664-.089-3.33-.174-5-.286l-2.508-.187-1.255-.094-.635-.048-1.079-.143a38.388,38.388,0,0,1-8.268-2.182,42.667,42.667,0,0,1-7.19-3.609,48.711,48.711,0,0,1-5.969-4.4,60.031,60.031,0,0,1-4.944-4.757c-1.506-1.619-2.879-3.258-4.165-4.907s-2.458-3.311-3.571-4.974a110.285,110.285,0,0,1-5.912-10q-2.624-5.008-4.776-10.014c-1.442-3.342-2.763-6.679-3.995-10.018s-2.372-6.675-3.417-10.022-2.029-6.691-2.951-10.04-1.75-6.71-2.544-10.073-1.515-6.739-2.184-10.135c-.337-1.7-.658-3.4-.956-5.123l-.442-2.6-.212-1.328-.22-1.465a18.1,18.1,0,0,1,14.859-20.694,17.791,17.791,0,0,1,20.1,14.391Z" transform="translate(-202.309 -117.127)" fill="#ff8c64"/>
              <path id="Trazado_875238" data-name="Trazado 875238" d="M318.691,196.717c2.308,8.194,11.927,36.255,20.373,50.307L376.17,229.1s-12.659-29.988-19.285-48.847a21.307,21.307,0,0,0-12.892-13.176,18.169,18.169,0,0,0-14.417.91c-10.672,5.2-11.834,17.246-11.713,23.189a22.076,22.076,0,0,0,.828,5.544" transform="translate(-203.017 -118.163)" fill="#913e53"/>
              <path id="Trazado_875239" data-name="Trazado 875239" d="M415.566,300.984c-6.542-6.584-58.165-21.3-92.439-11.519-3.928,7.727-8.921,27.307,3.358,45.416,45.055,7.529,70.2,23.023,70.2,23.023s15.975,37.742,25.467,51.595,31.262,57.842,31.262,57.842l32.8-14.327s-52.83-134.1-70.642-152.029" transform="translate(-202.809 -85.758)" fill="#1a060a"/>
              <path id="Trazado_875240" data-name="Trazado 875240" d="M372.568,183.549c.062,7.732-8.159,21.811-13.486,52.18-.137.762-.273,1.523-.4,2.3q-.428,2.514-.82,5.18-.149,1.047-.3,2.133c-.236,1.777-.472,3.606-.7,5.5v.013c-.074.622-.149,1.244-.224,1.879-.261,2.374-.509,4.824-.72,7.351-.2,2.222-.373,4.494-.522,6.83-.075,1.181-.149,2.387-.224,3.593-.062,1.257-.124,2.514-.186,3.8-.609,13.6-1.378,45.4-.286,63.251-23.93,15.451-73.925,16.428-107.565-9.217-1.95-12.137,1.105-53.551,2.161-65.9q.317-3.675.757-7.351a332.633,332.633,0,0,1,6.569-35.586c.161-.66.31-1.32.472-1.981,2.347-9.992,5.017-20.3,7.761-31.257,5.439-21.7,15.125-33.847,27.953-33.453a50.389,50.389,0,0,0,14.542-1.562c.447-.127.869-.241,1.292-.368a38.6,38.6,0,0,0,7.029-2.755l27.779,5.4a22.049,22.049,0,0,0,7.277,9.065c.335.241.658.482.993.724,9.065,6.259,20.726,7.63,20.837,20.25" transform="translate(-220.268 -122.984)" fill="#ff81aa"/>
              <path id="Trazado_875241" data-name="Trazado 875241" d="M339.886,224.87q-.149,1.047-.3,2.133c-.236,1.777-.472,3.606-.7,5.5v.013c-.074.622-.149,1.244-.224,1.879-.261,2.374-.509,4.824-.72,7.351-.2,2.222-.373,4.494-.522,6.83-.075,1.181-.149,2.387-.224,3.593l-7.563,9.712-8.78-24.516,16.044-21.227Z" transform="translate(-202.29 -104.647)" fill="#913e53"/>
              <path id="Trazado_875242" data-name="Trazado 875242" d="M300.941,234.473l9.053,24.41,15.675-20.608-8.935-25.214Z" transform="translate(-207.106 -105.475)" fill="#913e53"/>
              <path id="Trazado_875243" data-name="Trazado 875243" d="M281,231.745l9.322,24.3,15.445-20.788-9.212-25.11Z" transform="translate(-211.929 -106.259)" fill="#ad2f24"/>
              <path id="Trazado_875244" data-name="Trazado 875244" d="M261.07,229.247l9.59,24.2,15.218-20.968-9.491-25Z" transform="translate(-216.748 -106.982)" fill="#913e53"/>
              <path id="Trazado_875245" data-name="Trazado 875245" d="M256.478,308.864a.627.627,0,0,1-.62-.608c-2.715-67.841,9.852-117.8,9.98-118.3a.618.618,0,0,1,.758-.453.636.636,0,0,1,.443.774c-.127.5-12.646,50.283-9.941,117.924a.631.631,0,0,1-.595.66h-.026" transform="translate(-218.1 -111.831)" fill="#913e53"/>
              <path id="Trazado_875246" data-name="Trazado 875246" d="M316.246,170.757a1.86,1.86,0,1,1-1.859-1.9,1.88,1.88,0,0,1,1.859,1.9" transform="translate(-204.305 -117.392)" fill="#913e53"/>
              <path id="Trazado_875247" data-name="Trazado 875247" d="M315.865,178.182a1.86,1.86,0,1,1-1.859-1.9,1.88,1.88,0,0,1,1.859,1.9" transform="translate(-204.397 -115.391)" fill="#913e53"/>
              <path id="Trazado_875248" data-name="Trazado 875248" d="M319.594,194.433a35.38,35.38,0,0,1-13.357-8.523A66.374,66.374,0,0,1,294.43,170a.732.732,0,0,1,.257-.927.573.573,0,0,1,.836.236A65.041,65.041,0,0,0,307.1,184.9c9.648,9.317,19.7,11.739,29.889,7.195a.576.576,0,0,1,.791.364.728.728,0,0,1-.371.884A24.133,24.133,0,0,1,319.8,194.5l-.2-.066" transform="translate(-208.698 -117.359)" fill="#913e53"/>
              <path id="Trazado_875249" data-name="Trazado 875249" d="M318.435,165.68c-6.546-1.271-13.092-8.506-13.451-8.909a.731.731,0,0,1,.019-.961.574.574,0,0,1,.869-.009c.109.123,11.047,12.212,18.025,7.695a.574.574,0,0,1,.837.235.733.733,0,0,1-.238.932,8,8,0,0,1-6.06,1.017" transform="translate(-206.171 -120.964)" fill="#913e53"/>
              <path id="Trazado_875250" data-name="Trazado 875250" d="M314.112,282.461a43.9,43.9,0,0,1-7.39-2.139,63.439,63.439,0,0,1-18.161-11.2,97.01,97.01,0,0,1-16.523-18.389.735.735,0,0,1,.15-.951.572.572,0,0,1,.857.137,95.714,95.714,0,0,0,16.311,18.139c9.2,7.841,23.562,16.454,39.773,12.954a.6.6,0,0,1,.708.536.7.7,0,0,1-.507.8,37.578,37.578,0,0,1-15.217.116" transform="translate(-214.123 -95.612)" fill="#913e53"/>
              <path id="Trazado_875251" data-name="Trazado 875251" d="M305.7,143.33s-10.247-.25-12.376,9.82l6.188,14.038s5.9-8.174,19.512-7.578c0,0-10.152-7.763-13.325-16.28" transform="translate(-208.947 -124.274)" fill="#913e53"/>
              <path id="Trazado_875252" data-name="Trazado 875252" d="M320.22,157.56a11.707,11.707,0,0,0,6.418-7.582s9.042,5.386,8.93,13.893l-8.372,4.223s-2.81-7.421-6.975-10.534" transform="translate(-202.445 -122.481)" fill="#913e53"/>
              <path id="Trazado_875253" data-name="Trazado 875253" d="M247.065,290s-15.911,64.191,66.6,64.191c44.073,0,65.02-4.35,65.02-4.35s1.059,39.786,3.108,56.57,9.316,58.605,9.316,58.605l34.711,2.749S431.366,322.11,410.093,308.7s-51.86-13.811-104.379-18.962c0,0-47.15-8.161-58.649.264" transform="translate(-220.432 -85.762)" fill="#35252f"/>
              <path id="Trazado_875254" data-name="Trazado 875254" d="M394.188,452.89a.948.948,0,0,0,.221-.027.967.967,0,0,0,.7-1.164c-4.795-20.487-6.7-49.84-8.232-73.425-1.51-23.249-2.408-35.48-4.775-37.619-2.6-2.351-10.331-1.511-23.135-.119-15.865,1.724-39.841,4.331-65.691,1.3-12.839-1.5-22.683-6.646-29.256-15.282-11.79-15.488-9.085-37.229-9.055-37.448a.962.962,0,0,0-.81-1.085.945.945,0,0,0-1.062.827c-.122.92-2.849,22.741,9.428,38.881,6.9,9.067,17.172,14.458,30.54,16.026,26.058,3.055,50.159.434,66.106-1.3,11.01-1.2,19.7-2.142,21.684-.353.448.4,1.336,2.4,2.256,11.224.68,6.516,1.238,15.117,1.885,25.076,1.536,23.657,3.449,53.1,8.279,73.746a.95.95,0,0,0,.918.741" transform="translate(-218.759 -85.27)" fill="#67505a"/>
              <path id="Trazado_875255" data-name="Trazado 875255" d="M300.123,176.9l.148,2.51.18,2.7c.135,1.809.263,3.634.42,5.455.317,3.646.663,7.3,1.072,10.934.2,1.817.427,3.63.658,5.438s.466,3.613.724,5.408c.51,3.593,1.108,7.152,1.743,10.671s1.35,6.99,2.152,10.388q.6,2.546,1.273,5.031c.44,1.656.9,3.289,1.391,4.887a94.626,94.626,0,0,0,3.262,9.107A55.645,55.645,0,0,0,317,257.024a23.073,23.073,0,0,0,3.84,4.821,8.765,8.765,0,0,0,1.411,1.066c.05.025.1.065.143.084l.07.037.035.022a.094.094,0,0,0,.021.011l.055.024c.291.128.559.262.875.391l.458.2.484.194c.317.131.662.256,1,.386,1.365.514,2.859.993,4.4,1.465s3.158.912,4.8,1.331c3.292.851,6.721,1.628,10.209,2.323s7.04,1.356,10.621,1.964c1.791.306,3.591.59,5.4.877s3.616.578,5.432.849c3.634.529,7.283,1.071,10.94,1.56l10.872,1.455.324.043a13.66,13.66,0,0,1-1.11,27.131l-1.54.072-1.481.06c-.983.037-1.963.074-2.941.094-1.956.044-3.908.089-5.859.1-3.9.015-7.808,0-11.721-.127q-2.936-.082-5.882-.2c-1.963-.09-3.929-.208-5.9-.334-3.945-.259-7.911-.566-11.91-1.028s-8.041-.984-12.166-1.7a114.436,114.436,0,0,1-12.8-2.948c-.562-.17-1.12-.336-1.7-.527l-.858-.279-.875-.3c-.576-.194-1.185-.429-1.777-.647l-.112-.042-.142-.058-.293-.121-.584-.246c-.392-.162-.767-.344-1.15-.519a41.8,41.8,0,0,1-8.181-5.106,55.214,55.214,0,0,1-11.281-12.4,85.031,85.031,0,0,1-7.07-12.744,130.547,130.547,0,0,1-4.9-12.563c-.7-2.078-1.339-4.149-1.945-6.215s-1.145-4.13-1.667-6.188c-1.036-4.115-1.936-8.21-2.737-12.295s-1.464-8.162-2.066-12.229q-.451-3.051-.839-6.1t-.7-6.093c-.428-4.061-.791-8.119-1.054-12.193-.133-2.038-.262-4.078-.348-6.133l-.122-3.1-.046-1.578-.032-1.715a17.753,17.753,0,1,1,35.475-1.474Z" transform="translate(-215.89 -119.956)" fill="#ff8c64"/>
              <path id="Trazado_875256" data-name="Trazado 875256" d="M360.192,249.6s-4.547,15.046-1.712,27.333a8.719,8.719,0,0,0,6.575,1.381,63.532,63.532,0,0,1,1.771-28.663,8.032,8.032,0,0,0-6.634-.051" transform="translate(-193.419 -95.813)" fill="#35252f"/>
              <path id="Trazado_875257" data-name="Trazado 875257" d="M369.968,266.367a8.438,8.438,0,1,1-7.9-9.14,8.5,8.5,0,0,1,7.9,9.14" transform="translate(-194.491 -93.573)" fill="#35252f"/>
              <path id="Trazado_875258" data-name="Trazado 875258" d="M360.714,271.517a6.208,6.208,0,1,1,6.434-5.812,6.167,6.167,0,0,1-6.434,5.812" transform="translate(-194.031 -93.06)" fill="#fff"/>
              <path id="Trazado_875259" data-name="Trazado 875259" d="M298.412,251.484a.61.61,0,0,1-.414-.161.645.645,0,0,1-.05-.9c5.489-6.277,14.152-10.055,14.518-10.213a.616.616,0,0,1,.813.338.64.64,0,0,1-.332.832c-.087.038-8.776,3.829-14.073,9.889a.613.613,0,0,1-.463.212" transform="translate(-207.868 -98.169)" fill="#ff6a48"/>
              <path id="Trazado_875260" data-name="Trazado 875260" d="M299.426,243.293a.623.623,0,0,1-.6-.5.636.636,0,0,1,.469-.759c.293-.067,7.238-1.644,11.9-1.385a.635.635,0,0,1-.068,1.268c-4.494-.258-11.49,1.339-11.56,1.356a.636.636,0,0,1-.137.015" transform="translate(-207.623 -98.045)" fill="#ff6a48"/>
              <path id="Trazado_875261" data-name="Trazado 875261" d="M261.347,180.639c.181,8.525,2.456,38.169,7.1,53.962l40.357-7.625s-4.733-32.3-6.418-52.266a21.629,21.629,0,0,0-9.166-16.108,18.211,18.211,0,0,0-14.165-2.892c-11.618,2.236-15.756,13.577-17.126,19.354a22.1,22.1,0,0,0-.587,5.576" transform="translate(-216.682 -121.037)" fill="#ff81aa"/>
              <path id="Trazado_875262" data-name="Trazado 875262" d="M268.522,228.767a.621.621,0,0,1-.591-.442c-7.508-24.023-6.878-48.139-6.871-48.379a.628.628,0,0,1,.621-.616h.019a.63.63,0,0,1,.6.654c-.007.239-.63,24.145,6.813,47.955a.637.637,0,0,1-.4.8.605.605,0,0,1-.189.031" transform="translate(-216.754 -114.568)" fill="#913e53"/>
              <path id="Trazado_875263" data-name="Trazado 875263" d="M300.785,221.907a.626.626,0,0,1-.611-.524c-2.364-13.7-5.617-43.882-5.649-44.184a.621.621,0,1,1,1.234-.14c.032.3,3.28,30.445,5.638,44.1a.634.634,0,0,1-.5.735.52.52,0,0,1-.108.01" transform="translate(-208.659 -115.333)" fill="#913e53"/>
              <path id="Trazado_875264" data-name="Trazado 875264" d="M330.493,377.959H271.444c-18.708,0-38.741-10.468-41.613-29.367a366.483,366.483,0,0,1-3.719-72.205c1.213-25.4,13.959-49.031,33.49-64.779,0,0-14.6,76.943-3.919,125.087,6.1,27.465,74.81,41.264,74.81,41.264" transform="translate(-225.3 -105.867)" fill="#fab623"/>
              <path id="Trazado_875265" data-name="Trazado 875265" d="M462.392,275.621H319.946a.582.582,0,0,1-.575-.588,8.1,8.1,0,0,1,8.007-8.185H462.392a.581.581,0,0,1,.575.588v7.6a.581.581,0,0,1-.575.588" transform="translate(-202.65 -90.975)" fill="#04192f"/>
              <path id="Trazado_875266" data-name="Trazado 875266" d="M499.338,211.563l-17.779,76.878a4.462,4.462,0,0,1-4.323,3.5H367.711a4.517,4.517,0,0,1-4.323-5.584l17.779-76.88a4.463,4.463,0,0,1,4.323-3.5H495.015a4.518,4.518,0,0,1,4.323,5.585" transform="translate(-192.036 -107.385)" fill="#052845"/>
              <path id="Trazado_875267" data-name="Trazado 875267" d="M467.145,225.178c-1.1,6.047-6.794,10.95-12.709,10.95s-9.815-4.9-8.712-10.95,6.794-10.95,12.709-10.95,9.816,4.9,8.712,10.95" transform="translate(-172.143 -105.161)" fill="#fab623"/>
              <path id="Trazado_875268" data-name="Trazado 875268" d="M453.575,221.668c-.221,1.21-.817,2.19-1.331,2.19s-.752-.98-.531-2.19.817-2.19,1.331-2.19.752.98.531,2.19" transform="translate(-170.67 -103.745)" fill="#35252f"/>
              <path id="Trazado_875269" data-name="Trazado 875269" d="M458.075,221.668c-.221,1.21-.817,2.19-1.331,2.19s-.753-.98-.531-2.19.817-2.19,1.331-2.19.753.98.532,2.19" transform="translate(-169.581 -103.745)" fill="#35252f"/>
              <path id="Trazado_875270" data-name="Trazado 875270" d="M454.539,228.185c-4.606,0-4.8-4.708-4.8-4.755a.591.591,0,0,1,.461-.566.381.381,0,0,1,.487.363c.006.17.186,4.006,4.03,4.006s5.427-3.843,5.491-4.006a.573.573,0,0,1,.621-.363.4.4,0,0,1,.252.566c-.019.047-1.932,4.755-6.538,4.755" transform="translate(-171.127 -102.836)" fill="#35252f"/>
              <path id="Trazado_875271" data-name="Trazado 875271" d="M461.656,270.788h-44.29a.409.409,0,0,1-.4-.529l2.425-11a.694.694,0,0,1,.635-.529h44.29a.41.41,0,0,1,.4.529l-2.425,11a.692.692,0,0,1-.635.529" transform="translate(-179.055 -93.164)" fill="#ff81aa"/>
              <path id="Trazado_875272" data-name="Trazado 875272" d="M389.829,205.978,370.9,291.936h-3.188a4.517,4.517,0,0,1-4.323-5.585l17.779-76.878a4.461,4.461,0,0,1,4.321-3.5Z" transform="translate(-192.036 -107.385)" fill="#04192f"/>
              <path id="Trazado_875273" data-name="Trazado 875273" d="M432.517,244.007a9.73,9.73,0,0,1-9.325,8.511,7.338,7.338,0,0,1-7.325-8.511,9.73,9.73,0,0,1,9.323-8.511,7.338,7.338,0,0,1,7.327,8.511" transform="translate(-179.332 -99.427)" fill="#5e2d34"/>
              <path id="Trazado_875274" data-name="Trazado 875274" d="M645.872,279.861v5.916a6.221,6.221,0,0,1-6.28,6.164H202.8a6.221,6.221,0,0,1-6.277-6.164v-5.916a6.219,6.219,0,0,1,6.277-6.16H639.592a6.22,6.22,0,0,1,6.28,6.16" transform="translate(-232.355 -89.128)" fill="#00a9b4"/>
              <path id="Trazado_875275" data-name="Trazado 875275" d="M617.393,303.29H228.828a14.5,14.5,0,0,1-14.337-14.657v-.621H631.73v.621a14.5,14.5,0,0,1-14.337,14.657" transform="translate(-228.011 -85.27)" fill="#00a9b4"/>
              <path id="Trazado_875276" data-name="Trazado 875276" d="M213.916,515.806l50.9-215.759H246.941l-50.9,215.759Z" transform="translate(-232.472 -82.025)" fill="#00a9b4"/>
              <path id="Trazado_875277" data-name="Trazado 875277" d="M567.247,515.806l-50.9-215.759h17.875l50.9,215.759Z" transform="translate(-155.02 -82.025)" fill="#00a9b4"/>
              <rect id="Rectángulo_402270" data-name="Rectángulo 402270" width="449.349" height="2.707" transform="translate(-35.832 193.691)" fill="#00a9b4"/>
              <path id="Trazado_875355" data-name="Trazado 875355" d="M0,0,5.6-.019,5.463,43.137l-5.6.019Z" transform="translate(307.667 135.722) rotate(-8.709)" fill="#fab623"/>
              <path id="Trazado_875278" data-name="Trazado 875278" d="M478.673,235.749l-5.537.867,1.218-4.324.632-2.237L476.244,232Z" transform="translate(-165.469 -100.894)" fill="#ff8c64"/>
              <path id="Trazado_875356" data-name="Trazado 875356" d="M0,0,5.6-.019l-.01,3.135-5.6.019Z" transform="translate(313.597 175.301) rotate(-8.709)" fill="#35252f"/>
              <path id="Trazado_875279" data-name="Trazado 875279" d="M483.824,270.686l-4.8.752a.374.374,0,0,1-.425-.319l-.313-2.095,5.537-.867.313,2.095a.379.379,0,0,1-.312.434" transform="translate(-164.224 -90.622)" fill="#ef452f"/>
              <path id="Trazado_875280" data-name="Trazado 875280" d="M476.007,232l-1.89.3.632-2.237Z" transform="translate(-165.232 -100.894)" fill="#35252f"/>
              <path id="Trazado_875357" data-name="Trazado 875357" d="M0,0,5.6-.019,5.6,2.229l-5.6.019Z" transform="matrix(0.988, -0.151, 0.151, 0.988, 313.264, 173.077)" fill="#f68407"/>
              <path id="Trazado_875281" data-name="Trazado 875281" d="M474.5,236.816l4.736,31.606a.427.427,0,0,0,.487.366.435.435,0,0,0,.359-.5l-4.736-31.606a.43.43,0,0,0-.488-.367.436.436,0,0,0-.358.5" transform="translate(-165.141 -99.207)" fill="#f68407"/>
              <path id="Trazado_875282" data-name="Trazado 875282" d="M476.243,236.548l4.736,31.606a.429.429,0,0,0,.487.367.436.436,0,0,0,.359-.5l-4.736-31.606a.431.431,0,0,0-.488-.367.436.436,0,0,0-.358.5" transform="translate(-164.719 -99.279)" fill="#f68407"/>
              <rect id="Rectángulo_402274" data-name="Rectángulo 402274" width="5.599" height="43.177" transform="translate(317.613 135.071) rotate(-0.191)" fill="#4f9d5c"/>
              <path id="Trazado_875283" data-name="Trazado 875283" d="M486.748,236.009l-5.6.019,1.832-4.092.949-2.116.964,2.11Z" transform="translate(-163.532 -100.957)" fill="#ff8c64"/>
              <rect id="Rectángulo_402275" data-name="Rectángulo 402275" width="5.602" height="3.137" transform="translate(317.742 175.111) rotate(-0.191)" fill="#35252f"/>
              <path id="Trazado_875284" data-name="Trazado 875284" d="M486.494,271.205l-4.857.017a.378.378,0,0,1-.374-.381l-.006-2.119,5.6-.019.006,2.12a.376.376,0,0,1-.371.382" transform="translate(-163.505 -90.475)" fill="#ef452f"/>
              <path id="Trazado_875285" data-name="Trazado 875285" d="M484.533,231.931l-1.912.006.95-2.118Z" transform="translate(-163.176 -100.957)" fill="#35252f"/>
              <rect id="Rectángulo_402276" data-name="Rectángulo 402276" width="5.602" height="2.249" transform="matrix(1, -0.003, 0.003, 1, 317.735, 172.861)" fill="#3c7341"/>
              <path id="Trazado_875286" data-name="Trazado 875286" d="M482.273,236.475l.1,31.974a.428.428,0,1,0,.856,0l-.1-31.974a.428.428,0,1,0-.856,0" transform="translate(-163.26 -99.282)" fill="#3c7341"/>
              <path id="Trazado_875287" data-name="Trazado 875287" d="M484.038,236.467l.1,31.974a.429.429,0,1,0,.857,0l-.1-31.975a.428.428,0,1,0-.856,0" transform="translate(-162.833 -99.284)" fill="#3c7341"/>
              <path id="Trazado_875358" data-name="Trazado 875358" d="M0,0,43.159-.131l-.017,5.6L-.017,5.6Z" transform="matrix(0.141, -0.99, 0.99, 0.141, 321.397, 177.604)" fill="#1b6bfe"/>
              <path id="Trazado_875288" data-name="Trazado 875288" d="M494.52,236.563l-5.546-.806,2.388-3.778,1.238-1.955.656,2.229Z" transform="translate(-161.639 -100.903)" fill="#ff8c64"/>
              <path id="Trazado_875359" data-name="Trazado 875359" d="M0,0,3.136-.01,3.119,5.6-.017,5.6Z" transform="matrix(0.141, -0.99, 0.99, 0.141, 321.395, 177.603)" fill="#35252f"/>
              <path id="Trazado_875289" data-name="Trazado 875289" d="M489.081,271.438l-4.808-.7a.38.38,0,0,1-.317-.432l.292-2.1,5.546.8-.292,2.1a.374.374,0,0,1-.421.324" transform="translate(-162.854 -90.608)" fill="#ef452f"/>
              <path id="Trazado_875290" data-name="Trazado 875290" d="M492.79,232.253l-1.892-.275,1.237-1.955Z" transform="translate(-161.174 -100.903)" fill="#35252f"/>
              <path id="Trazado_875360" data-name="Trazado 875360" d="M0,0,2.248-.007,2.231,5.6-.017,5.6Z" transform="translate(321.826 174.496) rotate(-81.907)" fill="#1b48ca"/>
              <path id="Trazado_875291" data-name="Trazado 875291" d="M490.705,236.436l-4.4,31.657a.436.436,0,0,0,.363.5.431.431,0,0,0,.484-.372l4.4-31.657a.436.436,0,0,0-.363-.5.43.43,0,0,0-.484.372" transform="translate(-162.285 -99.275)" fill="#1b48ca"/>
              <path id="Trazado_875292" data-name="Trazado 875292" d="M492.453,236.683l-4.4,31.657a.436.436,0,0,0,.363.5.431.431,0,0,0,.484-.372l4.4-31.657a.436.436,0,0,0-.364-.5.431.431,0,0,0-.483.372" transform="translate(-161.863 -99.209)" fill="#1b48ca"/>
              <path id="Trazado_875293" data-name="Trazado 875293" d="M500.789,248.147l-.292,2.317-.266,2.1-.4,3.194-.261,2.08-.407,3.221-.261,2.053-.409,3.246-.256,2.025-.415,3.273-.251,2-.417,3.3-.25,1.974-.215,1.706H474.671l-.215-1.706-.251-1.974-.416-3.3-.251-2-.415-3.273-.256-2.025-.409-3.246-.261-2.053-.407-3.221-.261-2.08-.4-3.194-.266-2.1-.292-2.317Z" transform="translate(-166.09 -96.017)" fill="#ff81aa"/>
              <path id="Trazado_875294" data-name="Trazado 875294" d="M500.441,249.972l-.266,2.1H471.07l-.266-2.1Z" transform="translate(-166.033 -95.525)" fill="#ad2f24"/>
              <path id="Trazado_875295" data-name="Trazado 875295" d="M499.64,254.145l-.261,2.078H471.6l-.261-2.078Z" transform="translate(-165.902 -94.4)" fill="#ad2f24"/>
              <path id="Trazado_875296" data-name="Trazado 875296" d="M498.842,258.319l-.261,2.053H472.142l-.261-2.053Z" transform="translate(-165.772 -93.274)" fill="#ad2f24"/>
              <path id="Trazado_875297" data-name="Trazado 875297" d="M498.042,262.494l-.256,2.024H472.677l-.256-2.024Z" transform="translate(-165.642 -92.149)" fill="#ad2f24"/>
              <path id="Trazado_875298" data-name="Trazado 875298" d="M497.241,266.667l-.251,2H473.211l-.251-2Z" transform="translate(-165.512 -91.024)" fill="#ad2f24"/>
              <path id="Trazado_875299" data-name="Trazado 875299" d="M496.444,270.841l-.251,1.974H473.749l-.251-1.974Z" transform="translate(-165.382 -89.899)" fill="#ad2f24"/>
              <rect id="Rectángulo_402280" data-name="Rectángulo 402280" width="47.566" height="6.988" transform="translate(345.731 151.414)" fill="#fab623"/>
              <path id="Trazado_875300" data-name="Trazado 875300" d="M552.471,273.457c-4.8,5.9-18.632,6-23.052,5.873h0c-.868-.024-1.371-.058-1.371-.058s-18.685,1.248-24.43-5.815c-3.26-4.011-1.432-10.028.758-14.482.52-1.059,1.063-2.029,1.563-2.865,1.1-1.841,1.992-3.02,1.992-3.02h40.231a40.522,40.522,0,0,1,3.555,5.886c2.189,4.454,4.017,10.471.758,14.482" transform="translate(-158.528 -94.684)" fill="#fab623"/>
              <path id="Trazado_875301" data-name="Trazado 875301" d="M512.658,268.06c-2.012,6.514,5.506,11.452,15.386,11.212,0,0-18.685,1.248-24.43-5.815-3.26-4.012-1.432-10.028.758-14.482.051-.107.1-.213.158-.316s.1-.208.158-.311c.422-.816.848-1.57,1.248-2.24,1.1-1.841,1.992-3.02,1.992-3.02h40.231a40.583,40.583,0,0,1,3.555,5.887h-18a34.388,34.388,0,0,0-13.174,2.562c-3.523,1.459-6.975,3.592-7.88,6.523" transform="translate(-158.528 -94.685)" fill="#f68407"/>
              <path id="Trazado_875302" data-name="Trazado 875302" d="M544.018,257.77c-.554.843-1.1,1.629-1.613,2.341-1.643,2.28-2.954,3.8-3.059,3.923l-.006,0H515.165l-.006,0c-.1-.124-1.416-1.643-3.058-3.923-.513-.712-1.059-1.5-1.613-2.341-2.964-4.522-6.1-10.628-5.238-15.277a7.175,7.175,0,0,1,1.183-3.086,3.145,3.145,0,0,1,.859-.781c2.608-1.556,6.609,2.081,7.873,1.964,1.707-.157-1.069-8.869-5.029-15.051-3.7-5.78-6.113-13.5-1.58-16.289a5.83,5.83,0,0,1,.513-.278,5.142,5.142,0,0,1,.519-.222c5.886-2.218,7.9,5.863,10.383,4.752,2.438-1.094-5.031-26.9,6.713-26.948.181,0,.376,0,.57.014.2-.01.386-.018.571-.014,11.74.051,4.272,25.854,6.709,26.948,2.481,1.111,4.5-6.97,10.383-4.752a5.136,5.136,0,0,1,.519.222,5.819,5.819,0,0,1,.513.278c4.535,2.784,2.123,10.508-1.576,16.289-3.96,6.182-6.737,14.893-5.033,15.051,1.268.117,5.265-3.521,7.874-1.964a3.159,3.159,0,0,1,.858.781,7.16,7.16,0,0,1,1.184,3.086c.858,4.649-2.274,10.755-5.238,15.277" transform="translate(-157.739 -112.621)" fill="#a8c38b"/>
              <path id="Trazado_875303" data-name="Trazado 875303" d="M523.625,186.554v77.484h-1.143V186.554c.183,0,.378,0,.571.015.195-.011.385-.019.571-.015" transform="translate(-153.537 -112.621)" fill="#3c7341"/>
              <path id="Trazado_875304" data-name="Trazado 875304" d="M527.106,226.188l-.43.381-.435.382-.138-.164L507.5,204.821l.479-.333c.164-.1.332-.19.514-.275L526.1,225l.573.673Z" transform="translate(-157.161 -107.861)" fill="#3c7341"/>
              <path id="Trazado_875305" data-name="Trazado 875305" d="M527.426,251.648l-.43.381-.435.382-.138-.164-20.249-23.9a3.087,3.087,0,0,1,.857-.778l19.392,22.894.573.673Z" transform="translate(-157.48 -101.564)" fill="#3c7341"/>
              <path id="Trazado_875306" data-name="Trazado 875306" d="M542.2,204.821l-18.6,21.963-.142.168-.43-.382-.435-.381.435-.51L523.6,225l17.61-20.788c.182.085.35.179.514.275Z" transform="translate(-153.511 -107.861)" fill="#3c7341"/>
              <path id="Trazado_875307" data-name="Trazado 875307" d="M543.843,228.348,523.6,252.243l-.14.168-.43-.381-.435-.382.435-.51.57-.677,19.39-22.891a3.088,3.088,0,0,1,.857.778" transform="translate(-153.511 -101.564)" fill="#3c7341"/>
              <path id="Trazado_875308" data-name="Trazado 875308" d="M282.64,275c-14.215,18.1-72.22,19.125-79.828,5.568-3.707-6.6-2.686-15.056-.662-21.993.214-.733.437-1.449.667-2.141a65.427,65.427,0,0,1,4.711-10.807s-.241,6.45,21.154,4.129a68.843,68.843,0,0,1,8.208-.336c.553.005,1.118.016,1.685.036,23.071.706,56.352,9.9,44.064,25.544" transform="translate(-231.435 -96.694)" fill="#35252f"/>
              <path id="Trazado_875309" data-name="Trazado 875309" d="M235.682,263.414c-3.349,3.82-9.165,5.262-16.815,4.164-.171-.024-.343-.051-.514-.077-9.644-1.522-14.343-6.208-16.557-9.726.212-.733.437-1.449.667-2.141,1.642,3.239,5.958,8.759,16.635,10.287,7.083,1.016,12.4-.239,15.369-3.623,2.674-3.056,3.381-7.77,2.07-13.678.553.005,1.118.016,1.684.034,1.313,6.276.443,11.356-2.538,14.76" transform="translate(-231.08 -95.889)" fill="#fab623"/>
              <path id="Trazado_875310" data-name="Trazado 875310" d="M263.719,268.169s13.619-1.028,15.234-8.054-29.621-.863-33.068-15.333,10.365-26.006,14.851-21.773c5.315,5.015-6.325,7.15-6.949,14.593-.519,6.183,3.23,11.881,14.859,12.729s16.831,2.7,16.78,8.224c-.055,6.015-9.476,12.217-15.2,12.606s-6.5-2.991-6.5-2.991" transform="translate(-220.551 -103.032)" fill="#35252f"/>
              <path id="Trazado_875311" data-name="Trazado 875311" d="M221.956,242.758a35.742,35.742,0,0,1,12.822-4.355,1.537,1.537,0,0,1,1.525,2.226l-4.975,10.139s-9.567-2.124-9.372-8.01" transform="translate(-226.206 -98.647)" fill="#35252f"/>
              <path id="Trazado_875312" data-name="Trazado 875312" d="M228.781,248.54c1.491-2.4,2.659-5.088,4.416-7.92,0,0-8.151,1.389-9.394,3.449,0,0,2.569,4.282,4.978,4.47" transform="translate(-225.759 -98.046)" fill="#67505a"/>
              <path id="Trazado_875313" data-name="Trazado 875313" d="M209.3,241.825s-8.408,1.314-7.776,11.387,10.225,11.146,10.225,11.146,1.711,3.241,7.633,4.55c3.792.839,9.441.573,10.872-2.278,0,0,8.237-3.085,8.141-10.59-.106-8.314-9.907-18.522-29.1-14.215" transform="translate(-231.155 -97.996)" fill="#35252f"/>
              <path id="Trazado_875314" data-name="Trazado 875314" d="M239.852,261.109s-3.431,14.3-6.306,17.25a16.833,16.833,0,0,1-10,5.064,4.35,4.35,0,0,0-3.344,6.726c1.883,2.144,6.194.755,12.14.755,5.136,0,11.21-2.1,12.946-5.553s.386-12.615-1.459-18.359c-1.139-3.543-2.742-5.4-3.976-5.883" transform="translate(-226.799 -92.522)" fill="#35252f"/>
              <path id="Trazado_875315" data-name="Trazado 875315" d="M262.65,258.937s9.049-2.215,11.964,4.757c4.586,10.965.92,17.229-11.3,18.97s-26.121,4.106-15.614-4.784a59.142,59.142,0,0,0,14.954-18.943" transform="translate(-220.879 -93.198)" fill="#35252f"/>
              <path id="Trazado_875316" data-name="Trazado 875316" d="M221.361,252.3a.185.185,0,0,0-.236.278A3.98,3.98,0,0,0,225,254.237a2.833,2.833,0,0,0,2.268-2.335.183.183,0,0,0-.335-.137,2.971,2.971,0,0,1-2.593,1.493,5.3,5.3,0,0,1-2.978-.961" transform="translate(-226.417 -95.066)" fill="#67505a"/>
              <path id="Trazado_875317" data-name="Trazado 875317" d="M480.5,200.725h0l-1.87,0a.238.238,0,0,1,0-.476l1.871,0a.238.238,0,0,1,0,.476m-3.743-.006h0l-1.871,0a.238.238,0,0,1,0-.476l1.871,0a.238.238,0,0,1,0,.476m-3.742-.006h0l-1.871,0a.238.238,0,0,1,0-.476l1.871,0a.238.238,0,0,1,0,.476m-3.743-.005h0l-1.871,0a.238.238,0,0,1,0-.476l1.871,0a.238.238,0,0,1,0,.476m-3.742-.006h0l-1.871,0a.238.238,0,0,1,0-.476l1.871,0a.238.238,0,0,1,0,.476m-3.743-.006h0l-1.871,0a.238.238,0,0,1,0-.476l1.871,0a.238.238,0,0,1,0,.476m-3.742-.006h0l-1.871,0a.238.238,0,0,1,0-.476l1.871,0a.238.238,0,0,1,0,.476m-3.743-.005h0l-1.871,0a.238.238,0,0,1,0-.476l1.871,0a.238.238,0,0,1,0,.476m-3.742-.006h0l-1.871,0a.238.238,0,0,1,0-.476l1.871,0a.238.238,0,0,1,0,.476m-3.742-.006h0l-1.87,0a.237.237,0,0,1-.234-.239.235.235,0,0,1,.234-.237l1.871,0a.238.238,0,0,1,0,.476m-3.743-.006h0l-1.871,0a.238.238,0,0,1,0-.476h0l1.87,0a.238.238,0,0,1,0,.476m-3.742-.006h0l-1.87,0a.238.238,0,0,1,0-.476l1.871,0a.238.238,0,0,1,0,.476m-3.743-.005h0l-1.871,0a.238.238,0,0,1,0-.476h0l1.87,0a.238.238,0,0,1,0,.476m-3.742-.006h0l-1.87,0a.238.238,0,0,1,0-.476l1.871,0a.238.238,0,0,1,0,.476m-3.743-.006h0l-1.871,0A.237.237,0,0,1,426,200.4a.234.234,0,0,1,.232-.237h0l1.87,0a.238.238,0,0,1,0,.476m-3.742-.006h0l-1.486,0a1.614,1.614,0,0,1-.441-.061.238.238,0,0,1-.163-.292.232.232,0,0,1,.286-.166,1.173,1.173,0,0,0,.319.043l1.486,0a.238.238,0,0,1,0,.476M482.112,200a.225.225,0,0,1-.118-.033.241.241,0,0,1-.083-.325,1.256,1.256,0,0,0,.165-.621v-1.136a.233.233,0,1,1,.466,0v1.136a1.746,1.746,0,0,1-.228.861.233.233,0,0,1-.2.117m-60.67-.837h0a.233.233,0,0,1-.233-.235l0-1.918a.234.234,0,0,1,.232-.237h0a.235.235,0,0,1,.232.237l0,1.913a.237.237,0,0,1-.232.24m60.871-2.953h0a.236.236,0,0,1-.233-.239l0-1.912a.236.236,0,0,1,.232-.239h0a.237.237,0,0,1,.232.239l0,1.913a.235.235,0,0,1-.232.237m-60.865-.875h0a.236.236,0,0,1-.232-.239l0-1.913a.233.233,0,1,1,.466,0l0,1.913a.235.235,0,0,1-.232.237m60.871-2.951h0a.237.237,0,0,1-.232-.239l0-1.913a.233.233,0,1,1,.466,0l0,1.912a.236.236,0,0,1-.232.239m-60.866-.876h0a.236.236,0,0,1-.232-.239l0-1.912a.233.233,0,1,1,.466,0l0,1.913a.235.235,0,0,1-.233.237m60.872-2.951h0a.236.236,0,0,1-.232-.239l0-1.912a.233.233,0,1,1,.466,0l0,1.913a.235.235,0,0,1-.232.237m-60.866-.875h0a.235.235,0,0,1-.232-.239l0-1.913a.233.233,0,1,1,.466,0l0,1.913a.236.236,0,0,1-.233.237m60.871-2.951h0a.236.236,0,0,1-.232-.239l0-1.913a.233.233,0,1,1,.466,0l0,1.912a.236.236,0,0,1-.233.239m-60.865-.876h0a.236.236,0,0,1-.233-.237l0-1.913a.234.234,0,0,1,.232-.237h0a.235.235,0,0,1,.232.237l0,1.913a.234.234,0,0,1-.232.237m60.871-2.951h0a.235.235,0,0,1-.232-.239l0-1.912a.233.233,0,1,1,.466,0l0,1.913a.236.236,0,0,1-.233.237m-60.865-.875h0a.236.236,0,0,1-.233-.239l0-1.913a.233.233,0,1,1,.466,0l0,1.913a.235.235,0,0,1-.232.237m60.871-2.951h0a.236.236,0,0,1-.233-.239l0-1.913a.235.235,0,0,1,.232-.237h0a.236.236,0,0,1,.232.239l0,1.913a.235.235,0,0,1-.232.237m-60.865-.876h0a.235.235,0,0,1-.232-.237l0-1.913a.231.231,0,0,1,.232-.237.236.236,0,0,1,.233.239l0,1.912a.235.235,0,0,1-.232.237m60.871-2.951h0a.236.236,0,0,1-.233-.239l0-1.912a.233.233,0,1,1,.466,0l0,1.913a.234.234,0,0,1-.232.237m-60.866-.875h0a.236.236,0,0,1-.232-.239l0-1.913a.233.233,0,1,1,.466,0l0,1.913a.236.236,0,0,1-.233.237m60.872-2.951h0a.236.236,0,0,1-.232-.239l0-1.913a.233.233,0,1,1,.466,0l0,1.913a.235.235,0,0,1-.232.237m-60.866-.876h0a.235.235,0,0,1-.232-.237l0-1.913a.233.233,0,1,1,.466,0l0,1.912a.235.235,0,0,1-.233.237M482.36,165.6h0a.235.235,0,0,1-.232-.237l0-1.913a.233.233,0,1,1,.466,0l0,1.913a.235.235,0,0,1-.233.237m-60.865-.875h0a.234.234,0,0,1-.232-.239l0-1.913a.235.235,0,0,1,.232-.237h0a.236.236,0,0,1,.232.239l0,1.913a.237.237,0,0,1-.233.237m60.871-2.951h0a.234.234,0,0,1-.232-.239l0-1.913a.233.233,0,1,1,.466,0l0,1.913a.237.237,0,0,1-.233.237M421.5,160.9h0a.237.237,0,0,1-.232-.239l0-1.913a.235.235,0,0,1,.232-.237h0a.236.236,0,0,1,.232.239l0,1.912a.236.236,0,0,1-.232.239m60.871-2.952h0a.236.236,0,0,1-.234-.237l0-1.911a.233.233,0,1,1,.466,0l0,1.913a.234.234,0,0,1-.232.237m-60.865-.875h0a.236.236,0,0,1-.232-.239l0-1.134a1.734,1.734,0,0,1,.23-.863.229.229,0,0,1,.318-.084.241.241,0,0,1,.083.326,1.243,1.243,0,0,0-.165.621l0,1.135a.235.235,0,0,1-.232.237m59.813-2.455a.215.215,0,0,1-.062-.009,1.173,1.173,0,0,0-.319-.043l-1.485,0a.238.238,0,0,1,0-.476l1.485,0a1.632,1.632,0,0,1,.443.061.24.24,0,0,1,.163.293.233.233,0,0,1-.225.174m-3.737-.058h0l-1.87,0a.238.238,0,0,1,0-.476l1.871,0a.238.238,0,0,1,0,.476m-3.743-.006h0l-1.871,0a.238.238,0,0,1,0-.476h0l1.87,0a.238.238,0,0,1,0,.476m-3.742-.005h0l-1.87,0a.238.238,0,0,1,0-.476l1.871,0a.238.238,0,0,1,0,.476m-3.743-.006h0l-1.871,0a.238.238,0,0,1,0-.476h0l1.87,0a.238.238,0,0,1,0,.476m-3.742-.006h0l-1.87,0a.238.238,0,0,1,0-.476l1.871,0a.238.238,0,0,1,0,.476m-3.743-.006h0l-1.871,0a.238.238,0,0,1,0-.476h0l1.871,0a.238.238,0,0,1,0,.476m-3.742-.006h0l-1.871,0a.238.238,0,0,1,0-.476l1.871,0a.238.238,0,0,1,0,.476m-3.743-.005h0l-1.871,0a.238.238,0,0,1,0-.476h0l1.871,0a.238.238,0,0,1,0,.476m-3.742-.006h0l-1.871,0a.238.238,0,0,1,0-.476l1.871,0a.238.238,0,0,1,0,.476m-3.743-.006h0l-1.871,0a.237.237,0,0,1-.232-.239.235.235,0,0,1,.233-.237l1.871,0a.238.238,0,0,1,0,.476m-3.742-.006h0l-1.871,0a.238.238,0,0,1,0-.476h0l1.87,0a.238.238,0,0,1,0,.476m-3.743-.006h0l-1.871,0a.238.238,0,0,1,0-.476l1.871,0a.237.237,0,0,1,.232.239.235.235,0,0,1-.233.237m-3.742-.005h0l-1.871,0a.238.238,0,0,1,0-.476l1.871,0a.238.238,0,0,1,0,.476m-3.743-.006h0l-1.871,0a.238.238,0,0,1,0-.476l1.871,0a.238.238,0,0,1,0,.476m-3.742-.006h0l-1.871,0a.238.238,0,0,1,0-.476h0l1.87,0a.238.238,0,0,1,0,.476" transform="translate(-178.025 -121.398)" fill="#e5e7fc"/>
              <rect id="Rectángulo_402281" data-name="Rectángulo 402281" width="40.444" height="55.277" transform="translate(246.213 76.141) rotate(-89.909)" fill="#e5e7fc"/>
              <g id="Grupo_1101392" data-name="Grupo 1101392" transform="translate(267.28 41.17)" opacity="0.2">
                <g id="Grupo_1101391" data-name="Grupo 1101391">
                  <g id="Grupo_1101390" data-name="Grupo 1101390" clip-path="url(#clip-path-4)">
                    <path id="Trazado_875318" data-name="Trazado 875318" d="M462.571,171.99a10.981,10.981,0,1,1-10.961-11.242,11.1,11.1,0,0,1,10.961,11.242" transform="translate(-440.613 -160.748)" fill="#fff"/>
                  </g>
                </g>
              </g>
              <path id="Trazado_875319" data-name="Trazado 875319" d="M473.9,184.176l-2.68-4.631L462.344,164.2l-17.853,30.63,29.4.048Z" transform="translate(-172.396 -118.647)" fill="#8c3ef7"/>
              <path id="Trazado_875320" data-name="Trazado 875320" d="M445.845,196.087l-22.2-.036,11.127-18.267L445.9,159.519l11.069,18.3,11.069,18.3Z" transform="translate(-177.435 -119.909)" fill="#431a7c"/>
              <path id="Trazado_875321" data-name="Trazado 875321" d="M435.76,171.361l7.186,5.518,7.2-5.495-7.176-11.865Z" transform="translate(-174.507 -119.909)" fill="#fff"/>
              <path id="Trazado_875322" data-name="Trazado 875322" d="M453.974,174.626l6.053,4.9,6.067-4.885L460.05,164.2Z" transform="translate(-170.103 -118.647)" fill="#fff"/>
              <path id="Trazado_875323" data-name="Trazado 875323" d="M243.081,76.381V99.931a5.579,5.579,0,0,0,5.515,5.638h41.823l12.627,4.631a1.625,1.625,0,0,0,2.04-2.138L300.31,95.452V76.381a5.579,5.579,0,0,0-5.517-5.638H248.6a5.579,5.579,0,0,0-5.515,5.638" transform="translate(-221.097 -143.842)" fill="#1b6bfe"/>
              <path id="Trazado_875324" data-name="Trazado 875324" d="M272.34,85.851a3.99,3.99,0,1,0,3.99-4.079,4.035,4.035,0,0,0-3.99,4.079" transform="translate(-214.022 -140.869)" fill="#1b48ca"/>
              <path id="Trazado_875325" data-name="Trazado 875325" d="M262.169,85.851a3.99,3.99,0,1,0,3.99-4.079,4.035,4.035,0,0,0-3.99,4.079" transform="translate(-216.482 -140.869)" fill="#1b48ca"/>
              <path id="Trazado_875326" data-name="Trazado 875326" d="M252,85.851a3.991,3.991,0,1,0,3.99-4.079A4.035,4.035,0,0,0,252,85.851" transform="translate(-218.941 -140.869)" fill="#1b48ca"/>
              <path id="Trazado_875327" data-name="Trazado 875327" d="M551,142.179v23.549a5.413,5.413,0,0,1-5.151,5.638H506.793L495,176a1.576,1.576,0,0,1-1.9-2.138l4.461-12.611v-19.07a5.412,5.412,0,0,1,5.152-5.638H545.85A5.412,5.412,0,0,1,551,142.179" transform="translate(-160.668 -126.104)" fill="#00efff"/>
              <path id="Trazado_875328" data-name="Trazado 875328" d="M513.832,151.65a3.741,3.741,0,1,1-3.725-4.079,3.915,3.915,0,0,1,3.725,4.079" transform="translate(-157.43 -123.13)" fill="#00a9b4"/>
              <path id="Trazado_875329" data-name="Trazado 875329" d="M523.329,151.65a3.741,3.741,0,1,1-3.725-4.079,3.915,3.915,0,0,1,3.725,4.079" transform="translate(-155.134 -123.13)" fill="#00a9b4"/>
              <path id="Trazado_875330" data-name="Trazado 875330" d="M532.827,151.65a3.741,3.741,0,1,1-3.725-4.079,3.915,3.915,0,0,1,3.725,4.079" transform="translate(-152.838 -123.13)" fill="#00a9b4"/>
              <rect id="Rectángulo_402283" data-name="Rectángulo 402283" width="29.044" height="20.511" transform="matrix(1, -0.001, 0.001, 1, 184.201, 23.089)" fill="#8c3ef7"/>
              <path id="Trazado_875331" data-name="Trazado 875331" d="M402.756,146.473l-14.5,13.227-14.54-13.183Z" transform="translate(-189.51 -123.426)" fill="#6128ae"/>
            </g>
          </g>
          <g id="Grupo_1101399" data-name="Grupo 1101399">
            <g id="Grupo_1101398" data-name="Grupo 1101398" clip-path="url(#clip-path-2)">
              <path id="Trazado_875332" data-name="Trazado 875332" d="M310.5,130.427c-.335,3.251-4.936,1.587-7.157-.607-.98-.967-.463-3.241-.395-6.113.082-3.4.848-1.117-1.448-6.154-2.429-5.328,1.561-13.183,4.955-12.721,0,0-2.83-8.03,4.093-12.46,6.228-3.984,10.224.476,10.224.476s2.256-6.65,7.962-6.526,9.112,6.2,9.112,6.2a8.759,8.759,0,0,1,10.707-.755c6.095,3.743,3.148,8.436,3.148,8.436s6.7.444,8.375,6.218a7.351,7.351,0,0,1-2.184,7.809s2.522,2.608.9,7.983c-1.391,4.6-4.742,4.328-5.386,7.55a31.028,31.028,0,0,1-1.7,5.274c-.466,1.136-1.935,2.98-3.064,2.76-1.457-.282-1.987-3.07-1.513-4.588.8-2.552,1.591-6.265.492-8.7-1.817-4.027.527-8.3-3.227-10.338s-18.228,2.234-26.6-5.3c0,0-.478,5.714-4.084,6.721s-3.008,5.586-3.013,9.4c0,1.78-.191,5.356-.2,5.43" transform="translate(72.725 23.271)" fill="#35252f"/>
              <path id="Trazado_875333" data-name="Trazado 875333" d="M331.358,153.557l-1.341,7.22a22.037,22.037,0,0,1-2.833,1.306c-13.662,5.148-25.161-6.742-25.161-6.742l4.651-25.036,21.742,20.478Z" transform="translate(73.03 35.128)" fill="#ff8c64"/>
              <g id="Grupo_1101397" data-name="Grupo 1101397" transform="translate(385.037 178.281)" opacity="0.25" style="mix-blend-mode: multiply;isolation: isolate">
                <g id="Grupo_1101396" data-name="Grupo 1101396">
                  <g id="Grupo_1101395" data-name="Grupo 1101395" clip-path="url(#clip-path-6)">
                    <path id="Trazado_875334" data-name="Trazado 875334" d="M329.414,150.829l-1.341,7.22a22.035,22.035,0,0,1-2.833,1.306c-9.658-6.254-15.177-18.932-15.177-18.932l16.408,7.633Z" transform="translate(-310.063 -140.425)" fill="#ff8c64"/>
                  </g>
                </g>
              </g>
              <path id="Trazado_875335" data-name="Trazado 875335" d="M337.877,125.083s4.911-4.066,6.279,1.219-2.2,14.754-8,11.963Z" transform="translate(81.283 33.318)" fill="#ff6a48"/>
              <path id="Trazado_875336" data-name="Trazado 875336" d="M346.525,149.484s-2.752,14.933-17.934,11.949c-15.089-2.961-23.124-17.076-23.555-17.741l-.014-.018.417-3.17,2.168-16.451,1.157-8.793s.984-16.048,16.084-16.077c11.032-.023,20.678,3.724,24.661,10.379.128.215.251.434.364.655a13.885,13.885,0,0,1,1.51,7.856L348.951,133.8l-.6,3.853Z" transform="translate(73.756 26.738)" fill="#ff8c64"/>
              <path id="Trazado_875337" data-name="Trazado 875337" d="M319.624,113.335h0a3.494,3.494,0,0,0,4.155,2.655,19,19,0,0,1,3.653-.486,3.259,3.259,0,0,0,3.131-3.54s-6.948-2.036-10.939,1.371" transform="translate(77.286 30.021)" fill="#35252f"/>
              <path id="Trazado_875338" data-name="Trazado 875338" d="M343.692,118.258h0a3.446,3.446,0,0,1-4.817.912,19.537,19.537,0,0,0-3.226-1.822,3.313,3.313,0,0,1-1.642-4.465s7.194.71,9.685,5.375" transform="translate(80.685 30.431)" fill="#35252f"/>
              <path id="Trazado_875339" data-name="Trazado 875339" d="M349.371,110.217c-2.223-1.325-4.093-.857-8.115.09-5.814,1.367-11.412-1.967-16.2-5.768s-8.686-.564-7.349,2.317.759,4.892-1.844,7.729,2.912,5.462-.759,7.37c-1.546.8-1.761,2.412-1.493,4a2.239,2.239,0,0,1-3.009,2.482c-1.644-.783-3.5-4.386-3.5-4.386l1.157-8.793s.984-16.048,16.084-16.077c11.032-.023,20.678,3.724,24.661,10.379.128.215.251.434.364.655" transform="translate(74.259 26.738)" fill="#35252f"/>
              <path id="Trazado_875340" data-name="Trazado 875340" d="M326.065,125.6c-.2,1.087-2.556,1.543-5.257,1.018s-4.726-1.831-4.525-2.918,2.556-1.543,5.257-1.018,4.728,1.831,4.525,2.918" transform="translate(76.475 33.014)" fill="#ff6a48"/>
              <path id="Trazado_875341" data-name="Trazado 875341" d="M341.033,130.4a11.754,11.754,0,0,1-1.19-.171c-2.7-.523-4.724-1.831-4.523-2.918s2.556-1.544,5.254-1.019c.366.071.719.156,1.054.254Z" transform="translate(81.078 33.988)" fill="#ff6a48"/>
              <path id="Trazado_875342" data-name="Trazado 875342" d="M326.362,120.993c-.277,1.493-1.165,2.575-1.982,2.416s-1.254-1.5-.976-2.991,1.164-2.573,1.981-2.415,1.254,1.5.977,2.99" transform="translate(78.18 31.808)" fill="#35252f"/>
              <path id="Trazado_875343" data-name="Trazado 875343" d="M338.178,123.238c-.277,1.493-1.165,2.575-1.982,2.416s-1.254-1.5-.977-2.991,1.165-2.573,1.982-2.415,1.254,1.5.977,2.99" transform="translate(81.037 32.413)" fill="#35252f"/>
              <path id="Trazado_875344" data-name="Trazado 875344" d="M332.066,134.876c-5.336-1.036-8.837-6.564-8.884-6.639a.634.634,0,0,1,.189-.862.605.605,0,0,1,.844.192c.227.366,5.659,8.912,13.152,5.379a.607.607,0,0,1,.812.306.632.632,0,0,1-.3.83,9.223,9.223,0,0,1-5.814.793" transform="translate(78.124 34.312)" fill="#35252f"/>
              <path id="Trazado_875345" data-name="Trazado 875345" d="M310.915,130.2c-.1.152-2.869,4.337-5.88,5.134l-.012-.018.418-3.17a10.507,10.507,0,0,0,5.474-1.946" transform="translate(73.756 35.099)" fill="#ff8c64"/>
              <path id="Trazado_875346" data-name="Trazado 875346" d="M311.433,122.773s-4.349-9.151-9.8-3.682c-4.489,4.507-.339,19.332,7.5,16.05Z" transform="translate(72.49 31.635)" fill="#ff8c64"/>
              <path id="Trazado_875347" data-name="Trazado 875347" d="M308.022,131.722a.622.622,0,0,1-.494-.663,10.5,10.5,0,0,0-4.3-9.4.635.635,0,0,1-.185-.863.6.6,0,0,1,.843-.19,11.76,11.76,0,0,1,4.857,10.555.614.614,0,0,1-.657.574.57.57,0,0,1-.067-.009" transform="translate(73.254 32.486)" fill="#35252f"/>
              <path id="Trazado_875348" data-name="Trazado 875348" d="M303.174,125.992a.611.611,0,0,1-.425-.317.633.633,0,0,1,.247-.847c.277-.152,2.753-1.469,4.471-.647a.633.633,0,0,1,.294.832.605.605,0,0,1-.813.3c-.987-.472-2.768.284-3.37.616a.605.605,0,0,1-.4.063" transform="translate(73.188 33.405)" fill="#35252f"/>
              <path id="Trazado_875349" data-name="Trazado 875349" d="M349.775,125.171l-8.925-1.405-.233,1.258.017,0,8.951,1.409a.63.63,0,0,0,.714-.536.623.623,0,0,0-.524-.73" transform="translate(82.362 33.365)" fill="#fff"/>
              <path id="Trazado_875350" data-name="Trazado 875350" d="M321.42,132.435A10.816,10.816,0,0,1,313,119.791a10.608,10.608,0,0,1,12.366-8.608,10.819,10.819,0,0,1,8.419,12.645,10.608,10.608,0,0,1-12.367,8.607m3.714-19.993a9.354,9.354,0,0,0-10.9,7.59,9.537,9.537,0,0,0,7.422,11.146,9.351,9.351,0,0,0,10.9-7.587,9.539,9.539,0,0,0-7.422-11.148" transform="translate(75.64 29.922)" fill="#fff"/>
              <path id="Trazado_875351" data-name="Trazado 875351" d="M341.185,136.189a10.815,10.815,0,0,1-8.418-12.642,10.606,10.606,0,0,1,12.366-8.608,10.816,10.816,0,0,1,8.418,12.644,10.6,10.6,0,0,1-12.366,8.606M344.9,116.2a9.35,9.35,0,0,0-10.9,7.588,9.534,9.534,0,0,0,7.421,11.146,9.351,9.351,0,0,0,10.9-7.587A9.537,9.537,0,0,0,344.9,116.2" transform="translate(80.419 30.934)" fill="#fff"/>
              <path id="Trazado_875352" data-name="Trazado 875352" d="M302.885,118.7a.619.619,0,0,1-.212-.084.648.648,0,0,1-.2-.881c4.1-6.787,14.3-.923,14.4-.863a.648.648,0,0,1,.232.873.62.62,0,0,1-.854.239c-.092-.055-9.25-5.312-12.714.424a.622.622,0,0,1-.649.292" transform="translate(73.116 30.856)" fill="#fff"/>
              <path id="Trazado_875353" data-name="Trazado 875353" d="M329.549,130.193a.625.625,0,0,1-.487-.731.612.612,0,0,1,.715-.5,4.146,4.146,0,0,0,3.9-1.013c-1.458-5.516-2.893-11.067-2.908-11.124a.628.628,0,0,1,.436-.764.61.61,0,0,1,.746.444c.016.058,1.506,5.824,2.991,11.44a.637.637,0,0,1-.093.528,5.17,5.17,0,0,1-5.3,1.716" transform="translate(79.566 31.283)" fill="#35252f"/>
              <path id="Trazado_875354" data-name="Trazado 875354" d="M334.6,121.1a.627.627,0,0,1-.4-.272c-1.377-2.1-4.241-1.1-4.268-1.091a.624.624,0,0,1-.8-.392.644.644,0,0,1,.382-.816c1.311-.471,4.195-.747,5.725,1.586a.649.649,0,0,1-.171.887.611.611,0,0,1-.466.1" transform="translate(79.577 31.867)" fill="#fff"/>
            </g>
          </g>
        </g>
      </g>
    </g>
    <circle id="Elipse_11608" data-name="Elipse 11608" cx="10" cy="10" r="10" transform="translate(450 3989) rotate(-90)" fill="#0feeff"/>
    <circle id="Elipse_11609" data-name="Elipse 11609" cx="10" cy="10" r="10" transform="translate(475 3989) rotate(-90)" fill="#ceff27"/>
    <circle id="Elipse_11610" data-name="Elipse 11610" cx="10" cy="10" r="10" transform="translate(400 3989) rotate(-90)" fill="#fe80a7"/>
    <circle id="Elipse_11611" data-name="Elipse 11611" cx="10" cy="10" r="10" transform="translate(425 3989) rotate(-90)" fill="#283f65"/>
  </g>
</svg>
